<svg xmlns="http://www.w3.org/2000/svg" viewBox="0 0 342.1 512.2">
  <path fill="none" stroke="#000" stroke-miterlimit="10" stroke-width=".25" d="M341.9 14.6c0-12-2.4-14.4-14.2-14.4q-120 0-240-.1C77.3.1 68.9 3.2 61.6 10.7c-16.9 17.4-34 34.5-51.4 51.5C3.2 69.1.1 77 .1 86.8q.2 206 .1 412c0 10.5 2.8 13.3 13.1 13.3h315.4c10.4 0 13.2-2.8 13.2-13.3V14.6Zm-264.3 124H50.3V48.8h27.3v89.8Zm82.1 0h-27.3V19.5h27.3v119.1Zm42.8 0h-27.2V48.8h27.2Zm42.9 0h-27.3V19.5h27.3Zm42.8 0h-27.3V48.8h27.3Zm42.8 0h-27.3V48.8H331Zm-214.1 0H89.6V48.8h27.3v89.8Zm-78.6 20.9H11V69.7h27.3v89.8ZM311 480.1H31v-80h280Z"/>
</svg>
