<svg xmlns="http://www.w3.org/2000/svg" viewBox="0 0 392.7 512.3"><defs><style>.a{fill:none;stroke:#010101;stroke-miterlimit:10;stroke-width:0.25px;}</style></defs><path class="a" d="M415.1,0H149.2a37.1,37.1,0,0,0-37.1,37.1V156.6a26.2,26.2,0,0,1-8.9,19.8L68.7,207a26.2,26.2,0,0,0-8.9,19.8v46.3a5.3,5.3,0,0,0,5.3,5.3H78.5a7.5,7.5,0,0,1,7.5,7.4V326a16.1,16.1,0,0,1-4.7,11.3L64.4,354.1a16.2,16.2,0,0,0-4.6,11.3V474.9A37.1,37.1,0,0,0,96.9,512H415.1a37.1,37.1,0,0,0,37.1-37.1V37.1A37.1,37.1,0,0,0,415.1,0ZM194.3,136.4H168.7v-86h25.6v86Zm77,0H245.7V22.4h25.6v114Zm40.1,0H285.8v-86h25.6Zm40.2,0H326V22.4h25.6Zm40.1,0H366.1v-86h25.6Zm40.2,0H406.3v-86h25.6Zm-200.7,0H205.6v-86h25.6v86Zm-73.8,0H131.9v-86h25.5v86Z" transform="translate(-59.7 0.1)"/></svg>