<svg xmlns="http://www.w3.org/2000/svg" viewBox="0 0 392.7 512.3">
  <path fill="none" stroke="#010101" stroke-miterlimit="10" stroke-width=".25" d="M355.4.1H89.5a37.1 37.1 0 0 0-37.1 37.1v119.5a26.2 26.2 0 0 1-8.9 19.8L9 207.1a26.2 26.2 0 0 0-8.9 19.8v46.3a5.3 5.3 0 0 0 5.3 5.3h13.4a7.5 7.5 0 0 1 7.5 7.4v40.2a16.1 16.1 0 0 1-4.7 11.3L4.7 354.2a16.2 16.2 0 0 0-4.6 11.3V475a37.1 37.1 0 0 0 37.1 37.1h318.2a37.1 37.1 0 0 0 37.1-37.1V37.2A37.1 37.1 0 0 0 355.4.1ZM134.6 136.5H109v-86h25.6v86Zm77 0H186v-114h25.6v114Zm40.1 0h-25.6v-86h25.6Zm40.2 0h-25.6v-114h25.6Zm40.1 0h-25.6v-86H332Zm40.2 0h-25.6v-86h25.6Zm-200.7 0h-25.6v-86h25.6v86Zm-73.8 0H72.2v-86h25.5v86Z"/>
</svg>
