<svg xmlns="http://www.w3.org/2000/svg" viewBox="0 0 342.1 512.3">
  <path fill="none" stroke="#000" stroke-miterlimit="10" stroke-width=".25" d="M282.2 375.8v-6.9c.1-6.7 3-10.1 8.2-10s7.9 3.7 7.9 9.9c.1 8.9.1 17.7 0 26.6-.2 12.9.5 25.9-1.1 38.6-2.5 19.5-20.3 34.4-40 34.4q-86.2.3-172.5 0c-21.8-.1-40.5-18.1-40.8-40.2-.6-37.1-.3-74.3-.2-111.4 0-5.6 3.5-9.1 8.3-9s7.7 3.3 7.7 8.9c.1 17.9.2 35.8 0 53.6-.1 4.5 1.3 5.7 5.7 5.6 13.9-.2 27.9.1 41.9-.2 2.3 0 4.8-1.5 6.7-2.9s6-5.9 9.5-7.6 5.4-4.9 5.4-9.5c-.3-21.6-.2-43.2-.1-64.8.1-3.2-.9-5-3.7-6.6a42.1 42.1 0 0 1-10-7.8 10.2 10.2 0 0 0-8.6-3.7c-13.7.2-27.3 0-40.9 0h-5.9c0 3.4.2 6.2 0 9-.3 4.6-3.5 7.8-7.7 8s-8.2-3.2-8.2-7.5c0-22.3-1-44.7 1-66.8s19.5-35.4 40.5-35.5c57.1-.3 114.3-.4 171.5 0 23.4.2 41.3 18.9 41.5 42.4.2 36.1 0 72.2 0 108.3 0 6.3-3.4 10.3-8.3 10.2s-7.8-3.9-7.8-10.1v-58h-46.5a7.2 7.2 0 0 0-2.1.1c-1.8.6-4.4.9-4.9 2.1-3.6 7.5-16.2 6.6-15.7 18.4.8 21.4.3 42.8.1 64.2 0 3.3 1 5.1 3.9 6.7s6.3 3.6 8.4 6.2c3.6 4.7 7.9 5.6 13.3 5.4 14.2-.3 28.3-.1 43.5-.1Zm-136.8-17.4h51v-68.2h-51Zm17.3 16.7c-7.3 0-14.2-.5-21 .1-11.3 1.1-21.3 11-21.7 22-.6 18-.2 36.1-.1 54.1 0 .2.3.5.5.8h42.3Zm17-.6v77.7h42.2c0-19.2.9-38-.3-56.8-.6-9.7-7.8-17-17.5-19.1-7.8-1.7-16-1.3-24.4-1.8Zm-59.8-178c0 18.8-.6 37 .2 55.1.4 10 6.9 17.6 16.4 20.1s17.3 1.7 25.9 2.4v-77.9h-38.5Zm59.6 77h14.9c17.7-.1 27.9-10.4 28-28.1.1-14.6 0-29.3 0-43.9 0-1.7-.2-3.4-.3-5h-42.6ZM60.4 392.1c0 13.4-.8 26.4.3 39.1.9 10.6 8.2 17.8 18.5 20.1 7.6 1.6 15.6 1.1 24.2 1.6v-60.8Zm178.3 60.8c8.3-.5 15.9-.1 23.3-1.4 10.3-1.9 17.9-8.8 19-19 1.5-13.2.4-26.6.4-40.1h-42.7ZM103.2 256.1v-59.6c-7.6 0-14.3-.4-21 .1-10.1.8-20.4 9.1-21.3 19.2-1.2 13.2-.3 26.7-.3 40.3Zm135.4 0h43.1c0-12.8.5-25.3-.2-37.8a23.3 23.3 0 0 0-18.7-21.1c-7.7-1.4-15.7-1-24.2-1.4Zm-238.5 0v242.7c0 10.5 2.8 13.3 13.2 13.3h315.4c10.3 0 13.2-2.8 13.2-13.3v-412c0-9.8-3-17.8-10.1-24.7-17.3-16.9-34.5-34-51.4-51.4C273.1 3.2 264.7.1 254.3.1q-120 .3-240 .1C2.5.2.1 2.6.1 14.6Z"/>
</svg>
