<svg xmlns="http://www.w3.org/2000/svg" viewBox="0 0 512 512">
  <defs>
    <clipPath id="a" clipPathUnits="userSpaceOnUse">
      <path d="M-24.000001 15.999999h32v-32h-32Z"/>
    </clipPath>
  </defs>
  <path fill="none" stroke="#000" stroke-miterlimit="10" d="M-8.0000001 8.0000076C-12.418 8.0000076-16.000008 4.418-16.000008 0S-12.418-8.0000076-8.0000001-8.0000076C-3.5820001-8.0000076.00000751-4.418.00000751 0S-3.5820001 8.0000076-8.0000001 8.0000076Zm-.00259-3.6109047c.82 0 1.4669937-.2820208 1.9419937-.8440208.475-.563.7119865-1.3259508.7119865-2.2909508v-2.5080032c0-.973-.2349555-1.7380467-.7059555-2.2970467-.471-.558-1.1160003-.8379898-1.9370003-.8379898-.82 0-1.4680416.2810378-1.9450416.8410378-.4759997.561-.7149697 1.3249987-.7149697 2.2939987v2.5080032c0 .965.237004 1.7279508.7090035 2.2909508.473.562 1.1189834.8440208 1.9399834.8440208z" clip-path="url(#a)" transform="matrix(30.117647 0 0 -30.117647 496.94118 256)"/>
</svg>
