<svg xmlns="http://www.w3.org/2000/svg" viewBox="0 0 512 512">
  <defs>
    <clipPath id="a" clipPathUnits="userSpaceOnUse">
      <path d="M-18.6514 17.2539h32v-32h-32Z"/>
    </clipPath>
  </defs>
  <path fill="none" stroke="#000" d="M0 0c0-.973-.235-1.738-.706-2.297-.471-.558-1.116-.838-1.937-.838-.82 0-1.468.281-1.945.841-.476.561-.715 1.325-.715 2.294v2.508c0 .965.237 1.728.709 2.291.473.562 1.119.844 1.94.844.82 0 1.467-.282 1.942-.844C-.237 4.236 0 3.473 0 2.508Z" clip-path="url(#a)" transform="matrix(30.117647 0 0 -30.117647 335.85392 293.76452)"/>
</svg>
