<svg xmlns="http://www.w3.org/2000/svg" viewBox="0 0 512 512">
  <defs>
    <clipPath id="a" clipPathUnits="userSpaceOnUse">
      <path d="M-18.6514 17.2539h32v-32h-32Z"/>
    </clipPath>
  </defs>
  <path fill="none" stroke="#000" d="M-9.1514302 9.2539077c-.828 0-1.4999768-.6719771-1.4999768-1.4999771v-13.000061c0-.828.6719768-1.4999772 1.4999768-1.4999772h13.000061c.828 0 1.4999772.6719772 1.4999772 1.4999772v13.000061c0 .828-.6719772 1.4999771-1.4999772 1.4999771zm6.4974365-3.6109047c.82 0 1.4669937-.2820208 1.94199373-.8440208.475-.563.71198654-1.3259508.71198654-2.2909508V.00002816c0-.973-.2349555-1.73804666-.7059555-2.29704666-.47099997-.558-1.11600027-.8379898-1.93700027-.8379898-.82 0-1.4680417.2810377-1.9450417.8410377-.476.561-.7149696 1.32499876-.7149696 2.29399876V2.5080314c0 .965.2370034 1.7279508.7090034 2.2909508.473.562 1.1189834.8440208 1.9399834.8440208z" clip-path="url(#a)" transform="matrix(30.117647 0 0 -30.117647 335.85392 293.76452)"/>
</svg>
