<svg xmlns="http://www.w3.org/2000/svg" viewBox="0 0 512 512">
  <defs>
    <clipPath id="a" clipPathUnits="userSpaceOnUse">
      <path d="M-24.000001 15.999999h32v-32h-32Z"/>
    </clipPath>
  </defs>
  <path d="M-7.9999998 7.9999998C-12.418 7.9999998-16 4.418-16 0s3.582-7.9999998 8.0000002-7.9999998C-3.5819998-7.9999998 0-4.418 0 0s-3.5819998 7.9999998-7.9999998 7.9999998Zm-.00299-3.611206c.848 0 1.5260107-.285018 2.0360107-.856018.51-.57.7649536-1.3449887.7649536-2.3259887v-2.4199829c0-.984-.2529721-1.7589887-.7589721-2.3259887-.506-.566-1.1830293-.848999-2.0300293-.848999-.848 0-1.5280014.2839898-2.0390011.8519898-.512.568-.767944 1.3429979-.767944 2.3229979v2.4199829c0 .981.253963 1.7559887.761963 2.3259887.5079993.571 1.1850192.856018 2.0330192.856018zm0-1.1430053c-.437 0-.775038-.1609712-1.014038-.4829712-.238-.322-.3569946-.7689892-.3569946-1.3389892v-2.8420409c0-.578.1210371-1.0279756.3630371-1.3499756.242-.323.5819584-.4840088 1.0199584-.4840088.437 0 .7740473.1600181 1.0110473.4810181.236.32.3540039.7709663.3540039 1.3529663v2.8420409c0 .57-.1210371 1.0169892-.3630371 1.3389892-.242.322-.579977.4829712-1.013977.4829712z" clip-path="url(#a)" transform="matrix(32.000001 0 0 -32.000001 512 256)"/>
</svg>
