<svg xmlns="http://www.w3.org/2000/svg" viewBox="0 0 512 512">
  <defs>
    <clipPath id="a" clipPathUnits="userSpaceOnUse">
      <path d="M-22.500001 23.9999998h32v-32h-32Z"/>
    </clipPath>
  </defs>
  <path d="M-13 16c-.828 0-1.5-.672-1.5-1.5v-13c0-.82800005.672-1.5 1.5-1.5H0c.828 0 1.5.67199995 1.5 1.5v13C1.5 15.328.828 16 0 16Zm6.4970095-3.611206c.848 0 1.5260107-.285018 2.0360107-.856018.51-.57.7649535-1.344989.7649535-2.3259892V6.786804c0-.984-.2529721-1.7589887-.7589721-2.3259887-.506-.566-1.1830292-.848999-2.0300292-.848999-.848 0-1.5280014.2839897-2.0390014.8519897-.512.568-.7679443 1.342998-.7679443 2.322998v2.4199828c0 .9810002.2539628 1.7559892.7619628 2.3259892.508.571 1.18502.856018 2.03302.856018zm0-1.143006c-.437 0-.7750381-.160971-1.0140381-.482971-.238-.322-.3569946-.7689892-.3569946-1.3389892V6.5817869c0-.578.1210371-1.0279755.3630371-1.3499755.242-.323.5819585-.4840088 1.0199585-.4840088.437 0 .7740473.160018 1.0110473.481018.236.32.3540039.7709663.3540039 1.3529663v2.8420409c0 .57-.1210371 1.0169892-.3630371 1.3389892-.242.322-.579977.482971-1.013977.482971z" clip-path="url(#a)" transform="matrix(32.000001 0 0 -32.000001 464 512)"/>
</svg>
