<svg xmlns="http://www.w3.org/2000/svg" viewBox="0 0 512 512">
  <defs>
    <clipPath id="a" clipPathUnits="userSpaceOnUse">
      <path d="M-24.000001 15.999999h32v-32h-32Z"/>
    </clipPath>
  </defs>
  <path fill="none" stroke="#000" stroke-miterlimit="10" stroke-width=".5" d="M-8.0000002 7.9999924C-12.418 7.9999924-15.999993 4.418-15.999993 0S-12.418-7.9999924-8.0000002-7.9999924C-3.5820002-7.9999924-.00000781-4.418-.00000781 0S-3.5820002 7.9999924-8.0000002 7.9999924zm-.00302-3.9281159c.734 0 1.2990275-.2549961 1.6930275-.7639961.395-.51.5919742-1.1950028.5919742-2.0540028v-2.495985c0-.852-.1950089-1.5360028-.5880089-2.0540028-.392-.517-.9549708-.7760181-1.6849708-.7760181-.735 0-1.2989858.2600394-1.6959858.7790394-.397.52-.594996 1.2029815-.594996 2.0509815v2.495985c0 .859.194988 1.5440028.5849881 2.0540028.391.509.9559717.7639961 1.6939717.7639961z" clip-path="url(#a)" transform="matrix(31.030303 0 0 -31.030303 504.24243 256)"/>
</svg>
