<svg xmlns="http://www.w3.org/2000/svg" viewBox="0 0 512 512">
  <defs>
    <clipPath id="a" clipPathUnits="userSpaceOnUse">
      <path d="M-22.500001 23.9999998h32v-32h-32Z"/>
    </clipPath>
  </defs>
  <path fill="none" stroke="#000" stroke-miterlimit="10" stroke-width=".5" d="M-13.00001 15.999993c-.828 0-1.499982-.671983-1.499982-1.499983V1.4999907c0-.82800005.671982-1.49998289 1.499982-1.49998289H.00000953c.828 0 1.49998287.67198284 1.49998287 1.49998289V14.50001c0 .828-.67198287 1.499983-1.49998287 1.499983zm6.4969887-3.928116c.734 0 1.2990275-.254996 1.6930275-.763996.395-.51.5919743-1.195003.5919743-2.0540032v-2.495985c0-.852-.1950089-1.5360028-.5880089-2.0540028-.392-.517-.9549708-.7760181-1.6849708-.7760181-.735 0-1.2989858.2600394-1.6959858.7790394-.397.52-.5949955 1.2029815-.5949955 2.0509815v2.495985c0 .8590002.1949876 1.5440032.5849876 2.0540032.391.509.9559716.763996 1.6939716.763996z" clip-path="url(#a)" transform="matrix(31.030303 0 0 -31.030303 457.69697 504.24243)"/>
</svg>
