<svg xmlns="http://www.w3.org/2000/svg" viewBox="0 0 512.3 512.3"><defs><style>.a{fill:none;stroke:#000;stroke-miterlimit:10;stroke-width:0.25px;}</style></defs><path class="a" d="M481,254.2A225.4,225.4,0,0,0,415.1,96.9a230.3,230.3,0,0,0-26.6-22.8,224.5,224.5,0,0,0-98-40.5A235.2,235.2,0,0,0,257.8,31h-3.6a235.2,235.2,0,0,0-32.7,2.6,224.5,224.5,0,0,0-98,40.5,226.9,226.9,0,0,0-49.4,49.4A224.3,224.3,0,0,0,31,254.2v3.6h0A225.1,225.1,0,0,0,254.2,481h3.6A225.1,225.1,0,0,0,481,257.8v-3.6Zm-36,3.6c-.1,6.1-.5,12.2-1.1,18.2v.8a2.8,2.8,0,0,1-.1.9,164.1,164.1,0,0,1-2.8,17.3c0,.3-.1.6-.1.9a3.1,3.1,0,0,0-.2.8c-1.3,5.6-2.7,11.1-4.4,16.5h0l-.3.8-.3.9h0q-2.7,8.1-6,15.9h0l-.3.8-.4.8h0a187.7,187.7,0,0,1-19.2,33.5h.1l-.5.7-.5.7h-.1c-3.9,5.3-8,10.4-12.4,15.3h.1c-.1.2-.4.4-.6.6l-.5.7h-.2c-3.8,4.2-7.9,8.2-12.2,12.1h.2l-.7.6-.6.6-.2-.2a164.6,164.6,0,0,1-15.3,12.3v.2l-.7.5-.7.5h-.1a190.2,190.2,0,0,1-31.4,17.9h.1l-.8.4-.8.4v-.2a170,170,0,0,1-17.7,6.7v.2l-.9.3-.8.3v-.2c-5.6,1.7-11.4,3.2-17.2,4.5v.2l-.8.2h-.9v-.2c-5.5,1.2-11.2,2-16.9,2.7v.2h-1.8V444c-5.6.6-11.3.9-17,1h-3.6a177.3,177.3,0,0,1-17.9-1.1v.3h-1.8v-.2c-5.8-.7-11.6-1.6-17.2-2.8v.2l-.8-.2-.9-.2v-.2c-5.5-1.2-11-2.7-16.4-4.4v.2l-.8-.2-.8-.3v-.2q-8.1-2.7-15.9-6v.2l-.8-.3-.8-.4V429a186.8,186.8,0,0,1-33.5-19h-.1a1.8,1.8,0,0,1-.7-.5l-.7-.5v-.2c-5.3-3.8-10.4-8-15.3-12.3h-.1l-.7-.6-.6-.6h.1c-4.2-3.9-8.3-7.9-12.1-12.2h-.2l-.6-.6-.5-.7h.1a179,179,0,0,1-12.3-15.3h-.1l-.6-.7a1.8,1.8,0,0,0-.5-.7h.2a186.8,186.8,0,0,1-18-31.3h-.1l-.3-.8a3,3,0,0,1-.4-.8h.1a159.2,159.2,0,0,1-6.8-17.8h-.1a1.9,1.9,0,0,1-.2-.8l-.3-.8h0c-1.7-5.7-3.3-11.5-4.5-17.3h0a2.9,2.9,0,0,1-.2-.9c-.1-.3-.1-.5-.2-.8h0c-1.1-5.6-2-11.3-2.6-17h0c-.1-.3-.1-.6-.2-.9v-.9h0c-.6-5.7-.9-11.5-1-17.3h0v-3.6h0C68,151.3,151.3,68,254.2,67h3.6C360.7,68,444,151.3,445,254.2v3.6Zm-298,195-24.7,42.7a33,33,0,1,1-57.1-33l29-50.2A222.1,222.1,0,0,0,147,452.8Zm287.8,54.8a33,33,0,0,1-45.1-12.1L365,452.8a222.1,222.1,0,0,0,52.8-40.5l29,50.2A33.1,33.1,0,0,1,434.8,507.6ZM136,12.4h0L12.4,136h0a42.4,42.4,0,0,1,0-59.9L76.1,12.4A42.4,42.4,0,0,1,136,12.4ZM123.5,74.1a226.9,226.9,0,0,0-49.4,49.4L49.5,98.9,98.9,49.5ZM499.6,136h0L376,12.4h0a42.4,42.4,0,0,1,59.9,0l63.7,63.7A42.4,42.4,0,0,1,499.6,136ZM462.5,98.9l-24.6,24.7a223.2,223.2,0,0,0-22.8-26.7,230.3,230.3,0,0,0-26.6-22.8l24.6-24.6Z" transform="translate(0.1 0.1)"/><path class="a" d="M381.6,328.5h0a1.8,1.8,0,0,0,.6,2.4L418.8,352l1.7-3L384,327.9A1.8,1.8,0,0,0,381.6,328.5Z" transform="translate(0.1 0.1)"/><path class="a" d="M130.4,183.5a1.8,1.8,0,0,0-.6-2.4L93.2,160l-.9,1.5a10.9,10.9,0,0,1-.8,1.5L128,184.1A1.8,1.8,0,0,0,130.4,183.5Z" transform="translate(0.1 0.1)"/><path class="a" d="M328.5,381.6h0a1.8,1.8,0,0,0-.6,2.4L349,420.5l3-1.7-21.1-36.6A1.8,1.8,0,0,0,328.5,381.6Z" transform="translate(0.1 0.1)"/><path class="a" d="M183.5,130.4a1.8,1.8,0,0,0,.6-2.4L163,91.5l-1.5.8-1.5.9,21.1,36.6A1.8,1.8,0,0,0,183.5,130.4Z" transform="translate(0.1 0.1)"/><path class="a" d="M183.5,381.6h0a1.8,1.8,0,0,0-2.4.6L160,418.8l3,1.7L184.1,384A1.8,1.8,0,0,0,183.5,381.6Z" transform="translate(0.1 0.1)"/><path class="a" d="M349,91.5,327.9,128a1.7,1.7,0,1,0,3,1.8L352,93.2l-1.5-.9Z" transform="translate(0.1 0.1)"/><path class="a" d="M130.4,328.5h0a1.8,1.8,0,0,0-2.4-.6L91.5,349l1.7,3,36.6-21.1a1.8,1.8,0,0,0,.6-2.4Z" transform="translate(0.1 0.1)"/><path class="a" d="M384,184.1,420.5,163l-.8-1.5-.9-1.5-36.6,21.1a1.7,1.7,0,1,0,1.8,3Z" transform="translate(0.1 0.1)"/><path class="a" d="M257.8,67v42.2a1.8,1.8,0,0,1-3.6,0V67h3.6Z" transform="translate(0.1 0.1)"/><path class="a" d="M257.8,402.8V445h-3.6V402.8A1.8,1.8,0,0,1,256,401h0A1.8,1.8,0,0,1,257.8,402.8Z" transform="translate(0.1 0.1)"/><path class="a" d="M111,256h0a1.8,1.8,0,0,1-1.8,1.8H67v-3.6h42.2A1.8,1.8,0,0,1,111,256Z" transform="translate(0.1 0.1)"/><path class="a" d="M445,256v1.8H402.8a1.8,1.8,0,1,1,0-3.6H445Z" transform="translate(0.1 0.1)"/><path class="a" d="M256.5,371.9a9.2,9.2,0,0,0-8.4,5.4V371a10,10,0,0,1,2.3-7,7.4,7.4,0,0,1,5.8-2.7,13.5,13.5,0,0,1,3.1.3,15.3,15.3,0,0,1,2.7,1.1l.4-1a14.8,14.8,0,0,0-2.9-1.2,18.4,18.4,0,0,0-3.3-.3,8.5,8.5,0,0,0-6.6,3,11.4,11.4,0,0,0-2.7,7.8v9.4a12.1,12.1,0,0,0,2.6,8.1,8,8,0,0,0,6.5,3.1,8.3,8.3,0,0,0,6.5-2.7,9.8,9.8,0,0,0,2.6-7,11,11,0,0,0-2.3-7.3A7.7,7.7,0,0,0,256.5,371.9Zm5.3,16.1a7.3,7.3,0,0,1-5.8,2.5,6.9,6.9,0,0,1-5.7-2.8,11.2,11.2,0,0,1-2.2-7.3h0a6.6,6.6,0,0,1,2.5-5.1,8.6,8.6,0,0,1,5.7-2.1c2.6,0,4.5.7,5.7,2.2a10.2,10.2,0,0,1,1.9,6.6A8.9,8.9,0,0,1,261.8,388Z" transform="translate(0.1 0.1)"/><polygon class="a" points="235.4 123.3 243.2 121.6 243.2 151.9 244.3 151.9 244.3 120.5 235.4 122.3 235.4 123.3"/><path class="a" d="M259.9,150.5l8.8-10.3a46,46,0,0,0,4.7-6.2,9.5,9.5,0,0,0,1.7-5.3,8,8,0,0,0-2.2-6.1,8.2,8.2,0,0,0-6.1-2.2,8.6,8.6,0,0,0-9,9v.2h.9a8.1,8.1,0,0,1,2.1-5.8,7.7,7.7,0,0,1,5.9-2.2,6.2,6.2,0,0,1,7.1,7.1,8.6,8.6,0,0,1-1.1,4.3,31.8,31.8,0,0,1-4,5.5l-10.5,12.2v1.1h18.5v-1.1H259.9Z" transform="translate(0.1 0.1)"/><path class="a" d="M363.6,305.2h-.9l-10,14.8v.4h10.1v5.7h.8v-5.7h3.6v-.8h-3.6Zm-.8,14.4h-8.9l7.7-11.5,1.2-1.9h0Z" transform="translate(0.1 0.1)"/><polygon class="a" points="139.6 186.2 144.7 185.2 144.7 205.1 145.5 205.1 145.5 184.4 139.6 185.6 139.6 186.2"/><path class="a" d="M160.3,205.2a5.3,5.3,0,0,0,4.5-2,8.1,8.1,0,0,0,1.6-5.4v-6a8.2,8.2,0,0,0-1.6-5.5,5.7,5.7,0,0,0-4.6-2,5.5,5.5,0,0,0-4.5,2,8.2,8.2,0,0,0-1.7,5.5v6a8.1,8.1,0,0,0,1.7,5.4A5.4,5.4,0,0,0,160.3,205.2Zm-5.5-13.4a7.9,7.9,0,0,1,1.4-4.9,4.8,4.8,0,0,1,4-1.8,5,5,0,0,1,4.1,1.8,7.9,7.9,0,0,1,1.4,4.9v5.9a7.9,7.9,0,0,1-1.4,4.9,4.7,4.7,0,0,1-4,1.9,4.8,4.8,0,0,1-4.1-1.9,8.1,8.1,0,0,1-1.4-4.9Z" transform="translate(0.1 0.1)"/><path class="a" d="M136.1,240.3a8.3,8.3,0,0,0-6.5,2.7,9.8,9.8,0,0,0-2.6,7,11,11,0,0,0,2.3,7.3,7.8,7.8,0,0,0,6.4,2.7,9.2,9.2,0,0,0,8.3-5.4v6.3a10,10,0,0,1-2.3,7,7.4,7.4,0,0,1-5.8,2.7,13.5,13.5,0,0,1-3.1-.3,15.3,15.3,0,0,1-2.7-1.1l-.4,1a14.8,14.8,0,0,0,2.9,1.2,18.4,18.4,0,0,0,3.3.3,8.5,8.5,0,0,0,6.6-3,11.6,11.6,0,0,0,2.7-7.8v-9.4a12.1,12.1,0,0,0-2.6-8.1A8,8,0,0,0,136.1,240.3Zm7.9,11.3h0a6.6,6.6,0,0,1-2.5,5.1,8.6,8.6,0,0,1-5.7,2.1c-2.6,0-4.5-.7-5.7-2.2a10.2,10.2,0,0,1-1.9-6.6,8.9,8.9,0,0,1,2.1-6.1,7.3,7.3,0,0,1,5.8-2.5,6.9,6.9,0,0,1,5.7,2.8,11.2,11.2,0,0,1,2.2,7.3Z" transform="translate(0.1 0.1)"/><path class="a" d="M385.3,263.2a7.2,7.2,0,0,0-1.6-4.9,8.8,8.8,0,0,0-4.7-2.7,7.8,7.8,0,0,0,4.1-2.7,6.8,6.8,0,0,0,1.5-4.3,7.8,7.8,0,0,0-2.3-6.1,8.6,8.6,0,0,0-6.3-2.2,9.5,9.5,0,0,0-6.4,2.3,7.6,7.6,0,0,0-2.5,6h1a6.9,6.9,0,0,1,2.3-5.3,8.3,8.3,0,0,1,5.6-2,7.5,7.5,0,0,1,5.6,2,7,7,0,0,1,1.9,5.1,5.9,5.9,0,0,1-2.2,4.7,8.8,8.8,0,0,1-6,1.9h-2.4v1.2h2.4a10.7,10.7,0,0,1,6.5,1.7,6,6,0,0,1,2.4,5.3,6.9,6.9,0,0,1-2.1,5.3,8.4,8.4,0,0,1-5.9,2,9.2,9.2,0,0,1-6.2-2.2,7.2,7.2,0,0,1-2.5-5.6h-1a7.4,7.4,0,0,0,2.9,6.5,10.7,10.7,0,0,0,6.8,2.3,9.6,9.6,0,0,0,6.6-2.3A7.9,7.9,0,0,0,385.3,263.2Z" transform="translate(0.1 0.1)"/><path class="a" d="M316.4,356.6a8,8,0,0,0-3.1.5,6.3,6.3,0,0,0-2,1.3l.9-8.7h9.1v-.8h-9.8l-1.1,11.3.6.2a4.4,4.4,0,0,1,1.8-2.2,7.4,7.4,0,0,1,3.6-.8,4.5,4.5,0,0,1,3.6,1.5,5.9,5.9,0,0,1,1.3,4.1,6.8,6.8,0,0,1-1.3,4.6,5.1,5.1,0,0,1-4,1.5,4.9,4.9,0,0,1-3.7-1.3,4.7,4.7,0,0,1-1.4-3.7h-.7a5.1,5.1,0,0,0,1.6,4.2,6,6,0,0,0,4.2,1.5,5.8,5.8,0,0,0,4.6-1.9,7.6,7.6,0,0,0,1.5-5,6.8,6.8,0,0,0-1.6-4.7A5,5,0,0,0,316.4,356.6Z" transform="translate(0.1 0.1)"/><polygon class="a" points="190.9 162.6 191.7 162.6 191.7 141.7 185.7 142.9 185.7 143.5 190.9 142.4 190.9 162.6"/><polygon class="a" points="201.6 143.5 206.8 142.4 206.8 162.6 207.6 162.6 207.6 141.7 201.6 142.9 201.6 143.5"/><polygon class="a" points="319.6 163.5 320.4 163.5 320.4 142.6 314.4 143.8 314.4 144.4 319.6 143.3 319.6 163.5"/><path class="a" d="M189.7,350.3h12.4a31.8,31.8,0,0,0-5.2,8.4,25.3,25.3,0,0,0-2,9.8v1.9h.8v-1.9a24.5,24.5,0,0,1,2.1-10.2,31.8,31.8,0,0,1,5.3-8v-.8H189.7Z" transform="translate(0.1 0.1)"/><path class="a" d="M154.8,315.8a6.4,6.4,0,0,0,2.7-1.8,5.3,5.3,0,0,0-.6-6.9,5.9,5.9,0,0,0-4.2-1.4,6.2,6.2,0,0,0-4.3,1.4,5,5,0,0,0-.6,6.9,6.2,6.2,0,0,0,2.8,1.8,5.2,5.2,0,0,0-3.2,1.9,4.2,4.2,0,0,0-1.3,3.2,5.2,5.2,0,0,0,1.9,4.2,7.6,7.6,0,0,0,4.8,1.5,6.8,6.8,0,0,0,4.5-1.5,5.2,5.2,0,0,0,1.8-4.2,4.5,4.5,0,0,0-1.2-3.2A5.8,5.8,0,0,0,154.8,315.8Zm-5.8-1.6a4.4,4.4,0,0,1,0-6.6,5.7,5.7,0,0,1,3.7-1.2,5.2,5.2,0,0,1,3.6,1.3,3.9,3.9,0,0,1,1.5,3.2,4.1,4.1,0,0,1-1.5,3.3,5.1,5.1,0,0,1-3.5,1.2A6,6,0,0,1,149,314.2Zm7.7,10.3a5.8,5.8,0,0,1-3.9,1.4,6.4,6.4,0,0,1-4.2-1.4,4.5,4.5,0,0,1,0-7,6.4,6.4,0,0,1,4.1-1.4,6.1,6.1,0,0,1,4,1.4,4.1,4.1,0,0,1,1.6,3.4A4.4,4.4,0,0,1,156.7,324.5Z" transform="translate(0.1 0.1)"/><path class="a" d="M354.4,192.1a5.1,5.1,0,0,1,1.4-3.8,5,5,0,0,1,3.9-1.5,4.9,4.9,0,0,1,3.6,1.2,5.5,5.5,0,0,1,1.1,3.6,5.8,5.8,0,0,1-.7,2.8,25.4,25.4,0,0,1-2.7,3.7l-7,8.1v.8h12.3v-.8H355l6-6.9c1.3-1.6,2.3-2.9,3.1-4.1a7.1,7.1,0,0,0,1.1-3.5,5.3,5.3,0,0,0-1.5-4.1,5.4,5.4,0,0,0-4-1.5,5.6,5.6,0,0,0-4.4,1.8,5.6,5.6,0,0,0-1.6,4.3h.7Z" transform="translate(0.1 0.1)"/><path class="a" d="M443.9,276v.8a2.8,2.8,0,0,1-.1.9l-21.5-2.3a1.1,1.1,0,0,1-.9-.9h0a1,1,0,0,1,1-.8Z" transform="translate(0.1 0.1)"/><path class="a" d="M68.1,236.6l21.5,2.3a.8.8,0,0,0,1-.8h0a.8.8,0,0,0-.8-.9l-21.6-2.4a2.8,2.8,0,0,1-.1.9Z" transform="translate(0.1 0.1)"/><path class="a" d="M440.9,295c0,.3-.1.6-.1.9a3.1,3.1,0,0,0-.2.8l-21.3-4.5a1,1,0,0,1-.7-.9v-.2a.9.9,0,0,1,1.1-.6Z" transform="translate(0.1 0.1)"/><path class="a" d="M71,217.5l21.3,4.6a.8.8,0,0,0,1-.7h0a.9.9,0,0,0-.7-1.1l-21.2-4.5c-.1.3-.1.6-.2.8A2.9,2.9,0,0,1,71,217.5Z" transform="translate(0.1 0.1)"/><path class="a" d="M436.2,313.2l-.3.8-.3.9h0L415,308.2a.8.8,0,0,1-.7-.8.4.4,0,0,1,.1-.3.8.8,0,0,1,1.1-.5l20.7,6.6Z" transform="translate(0.1 0.1)"/><path class="a" d="M75.8,199.3,96.5,206a.9.9,0,0,0,1.1-.6h0a.9.9,0,0,0-.6-1.1l-20.7-6.7c-.1.3-.1.6-.2.9Z" transform="translate(0.1 0.1)"/><path class="a" d="M429.6,330.8l-.3.8-.4.8h0L409,323.8a1.1,1.1,0,0,1-.5-.9v-.3a1,1,0,0,1,1.2-.4l19.9,8.6Z" transform="translate(0.1 0.1)"/><path class="a" d="M82.3,181.7l20,8.7a.8.8,0,0,0,1.1-.5h0a.8.8,0,0,0-.4-1.1l-19.9-8.7a3,3,0,0,0-.4.8Z" transform="translate(0.1 0.1)"/><path class="a" d="M443.8,235.7l-21.6,2.2a1,1,0,0,0-.8,1h0a1,1,0,0,0,1,.8l21.6-2.3c0-.3-.1-.6-.1-.9A1.9,1.9,0,0,0,443.8,235.7Z" transform="translate(0.1 0.1)"/><path class="a" d="M90.5,273.6a.8.8,0,0,1-.8,1l-21.5,2.3h0c-.1-.3-.1-.6-.2-.9v-.9h0l21.5-2.2h.1A.8.8,0,0,1,90.5,273.6Z" transform="translate(0.1 0.1)"/><path class="a" d="M440.8,216.9l-21.2,4.5a.8.8,0,0,0-.7,1h0a.8.8,0,0,0,1,.7l21.3-4.4c-.1-.3-.1-.6-.2-.9S440.9,217.2,440.8,216.9Z" transform="translate(0.1 0.1)"/><path class="a" d="M92.4,291.2l-21.2,4.4h0a2.9,2.9,0,0,1-.2-.9c-.1-.3-.1-.5-.2-.8h0L92,289.4h.2a.9.9,0,0,1,.9.7A.9.9,0,0,1,92.4,291.2Z" transform="translate(0.1 0.1)"/><path class="a" d="M435.7,198l-20.6,6.6a.8.8,0,0,0-.6,1.1h0a.9.9,0,0,0,1.1.6l20.7-6.6-.3-.9Z" transform="translate(0.1 0.1)"/><path class="a" d="M96.9,307.9l-20.6,6.6h-.1a1.9,1.9,0,0,1-.2-.8l-.3-.8h0l20.7-6.6h.3a1,1,0,0,1,.8.6A.8.8,0,0,1,96.9,307.9Z" transform="translate(0.1 0.1)"/><path class="a" d="M428.3,178.6l-19.9,8.8a1,1,0,0,0-.4,1.2h0a.8.8,0,0,0,1.1.5l19.9-8.9a5.9,5.9,0,0,1-.4-.8Z" transform="translate(0.1 0.1)"/><path class="a" d="M103.5,325.1l-19.7,8.8h-.1l-.3-.8a3,3,0,0,1-.4-.8h.1l19.7-8.8h.4a.9.9,0,0,1,.3,1.7Z" transform="translate(0.1 0.1)"/><path class="a" d="M275.7,68.3l-2.4,21.6a.9.9,0,0,0,.8,1h0a.9.9,0,0,0,1-.8l2.3-21.6h-1.7Z" transform="translate(0.1 0.1)"/><path class="a" d="M238.6,422.6l-2.3,21.3v.3h-1.8v-.2l2.4-21.4a.9.9,0,0,1,.9-.8h.1A.9.9,0,0,1,238.6,422.6Z" transform="translate(0.1 0.1)"/><path class="a" d="M294.8,71.3l-4.6,21.2a.9.9,0,0,0,.7,1.1h0a.9.9,0,0,0,1-.7l4.6-21.2-.9-.2Z" transform="translate(0.1 0.1)"/><path class="a" d="M221.8,420l-4.5,21v.2l-.8-.2-.9-.2v-.2l4.5-21a1,1,0,0,1,.9-.7h.2A.9.9,0,0,1,221.8,420Z" transform="translate(0.1 0.1)"/><path class="a" d="M312.9,76.1l-6.6,20.7a.9.9,0,0,0,.6,1.1h0a1,1,0,0,0,1.1-.6l6.6-20.7-.8-.3Z" transform="translate(0.1 0.1)"/><path class="a" d="M205.7,415.8l-6.6,20.4v.2l-.8-.2-.8-.3v-.2l6.6-20.5a1,1,0,0,1,.9-.6h.2A1,1,0,0,1,205.7,415.8Z" transform="translate(0.1 0.1)"/><path class="a" d="M330.5,82.6l-8.6,19.9a.9.9,0,0,0,.4,1.2h0a.9.9,0,0,0,1.2-.5l8.7-19.9-.9-.3Z" transform="translate(0.1 0.1)"/><path class="a" d="M190.1,410l-8.6,19.7v.2l-.8-.3-.8-.4V429l8.6-19.7a.8.8,0,0,1,.8-.6h.3A.9.9,0,0,1,190.1,410Z" transform="translate(0.1 0.1)"/><path class="a" d="M235.4,68.4,237.6,90a.9.9,0,0,0,1,.8h0a.9.9,0,0,0,.8-1l-2.3-21.6h-1.7Z" transform="translate(0.1 0.1)"/><path class="a" d="M276.6,444.1h-1.8V444l-2.2-21.3h0a.9.9,0,0,1,1.7-.1l2.3,21.4Z" transform="translate(0.1 0.1)"/><path class="a" d="M216.7,71.4l4.4,21.3a.8.8,0,0,0,1,.7h0a.9.9,0,0,0,.7-1.1l-4.4-21.2-.9.2Z" transform="translate(0.1 0.1)"/><path class="a" d="M295.3,441.1l-.8.2h-.9v-.2l-4.3-21V420a.9.9,0,0,1,.6-.9.9.9,0,0,1,1.1.7l4.4,21.1Z" transform="translate(0.1 0.1)"/><path class="a" d="M197.7,76.5l6.6,20.7a1,1,0,0,0,1.1.6h0a1,1,0,0,0,.6-1.1L199.4,76l-.9.2Z" transform="translate(0.1 0.1)"/><path class="a" d="M314.3,436l-.9.3-.8.3v-.2L306,415.9v-.3a.9.9,0,0,1,1.8-.3l6.5,20.5Z" transform="translate(0.1 0.1)"/><path class="a" d="M178.3,84l8.9,19.8a.8.8,0,0,0,1.1.5h0a.9.9,0,0,0,.5-1.2l-8.9-19.8-.8.3Z" transform="translate(0.1 0.1)"/><path class="a" d="M333.6,428.5l-.8.4-.8.4v-.2l-8.7-19.7c-.1-.1-.1-.2-.1-.4a1,1,0,0,1,.5-.8,1,1,0,0,1,1.2.5l8.7,19.7Z" transform="translate(0.1 0.1)"/><path class="a" d="M145.5,102.9l12.7,17.7a.8.8,0,0,0,1.2.2h0a.8.8,0,0,0,.2-1.2L147,101.9l-.7.5Z" transform="translate(0.1 0.1)"/><path class="a" d="M366.4,409.6l-.7.5-.7.5h-.1l-12.5-17.6a.8.8,0,0,1-.2-.5.8.8,0,0,1,.4-.7.8.8,0,0,1,1.2.2l12.5,17.5Z" transform="translate(0.1 0.1)"/><path class="a" d="M128.9,116.4l14.5,16.1a.9.9,0,0,0,1.3.1h0a.8.8,0,0,0,0-1.2l-14.5-16.2-.6.6Z" transform="translate(0.1 0.1)"/><path class="a" d="M383.1,396.1l-.7.6-.6.6-.2-.2-14.4-15.9a1.4,1.4,0,0,1-.2-.7.9.9,0,0,1,.3-.6.8.8,0,0,1,1.2.1l14.4,16Z" transform="translate(0.1 0.1)"/><path class="a" d="M115.5,129.9l16.1,14.5a.9.9,0,0,0,1.3,0h0a1.1,1.1,0,0,0-.1-1.3l-16.1-14.5-.6.6Z" transform="translate(0.1 0.1)"/><path class="a" d="M396.4,382.7c-.1.2-.4.4-.6.6l-.5.7h-.2l-15.9-14.5a.9.9,0,0,1-.3-.7,1.4,1.4,0,0,1,.2-.6.9.9,0,0,1,1.3,0l15.9,14.5Z" transform="translate(0.1 0.1)"/><path class="a" d="M102.1,146.6l17.6,12.6a.9.9,0,0,0,1.3-.1h0a.9.9,0,0,0-.2-1.3l-17.7-12.7a1.8,1.8,0,0,1-.5.7A3.5,3.5,0,0,1,102.1,146.6Z" transform="translate(0.1 0.1)"/><path class="a" d="M409.8,366l-.5.7-.5.7h-.1l-17.5-12.6a1.3,1.3,0,0,1-.4-.7.8.8,0,0,1,.2-.5.8.8,0,0,1,1.2-.2l17.5,12.6Z" transform="translate(0.1 0.1)"/><path class="a" d="M409.3,145.8l-17.7,12.6a.9.9,0,0,0-.2,1.3h0a.9.9,0,0,0,1.3.2l17.6-12.6a3.5,3.5,0,0,0-.5-.8Z" transform="translate(0.1 0.1)"/><path class="a" d="M120.3,354.1l-17.5,12.5h-.1l-.6-.7a1.8,1.8,0,0,0-.5-.7h.2l17.5-12.5a.6.6,0,0,1,.5-.2.8.8,0,0,1,.7.3A.9.9,0,0,1,120.3,354.1Z" transform="translate(0.1 0.1)"/><path class="a" d="M395.8,129.2l-16.1,14.5a.9.9,0,0,0-.1,1.3h0a1,1,0,0,0,1.3,0L397,130.5l-.6-.7Z" transform="translate(0.1 0.1)"/><path class="a" d="M132.3,368.8l-16,14.4h-.2l-.6-.6-.5-.7h.1l16-14.4.6-.2a1.1,1.1,0,0,1,.7.3A.9.9,0,0,1,132.3,368.8Z" transform="translate(0.1 0.1)"/><path class="a" d="M382.4,115.8l-14.6,16.1a.9.9,0,0,0,0,1.2h0a.9.9,0,0,0,1.3,0L383.7,117l-.6-.6Z" transform="translate(0.1 0.1)"/><path class="a" d="M144.2,380.6l-14.5,16h-.1l-.7-.6-.6-.6h.1l14.5-15.9a.7.7,0,0,1,.6-.3c.3,0,.5,0,.6.2A.8.8,0,0,1,144.2,380.6Z" transform="translate(0.1 0.1)"/><path class="a" d="M365.7,102.4,353,120a.9.9,0,0,0,.2,1.3h0a.8.8,0,0,0,1.2-.3l12.7-17.6-.7-.5Z" transform="translate(0.1 0.1)"/><path class="a" d="M159,392.5,146.4,410h-.1a1.8,1.8,0,0,1-.7-.5l-.7-.5v-.2l12.5-17.4a.9.9,0,0,1,.8-.4.6.6,0,0,1,.5.2A.8.8,0,0,1,159,392.5Z" transform="translate(0.1 0.1)"/><path class="a" d="M258.2,239.3V194.5a2,2,0,0,0-4,0v44.8a16.9,16.9,0,1,0,4,0ZM241.8,256a14.2,14.2,0,0,1,28.4-.7h44.2a.8.8,0,0,1,.8.9.8.8,0,0,1-.8.8H270.2a14.2,14.2,0,0,1-28.4-1Z" transform="translate(0.1 0.1)"/></svg>