<svg xmlns="http://www.w3.org/2000/svg" viewBox="0 0 512 512">
  <defs>
    <clipPath id="a" clipPathUnits="userSpaceOnUse">
      <path d="M-18.7158 17.2539h32v-32h-32Z"/>
    </clipPath>
  </defs>
  <path fill="none" stroke="#000" stroke-width="1.5" d="M-9.2158153 9.2538827c-.8279997 0-1.4999677-.6719675-1.4999677-1.4999675V-5.2461153c0-.828.671968-1.4999675 1.4999677-1.4999675H3.7842152c.828 0 1.4999676.6719675 1.4999676 1.4999675V7.7539152c0 .828-.6719676 1.4999675-1.4999676 1.4999675zm6.4908028-3.610897c.829 0 1.490024-.2839527 1.98402401-.8499527.494-.566.74100494-1.3280323.74100494-2.2850323V-5.8e-7c0-.965-.24499679-1.72897362-.73499679-2.29097362-.49099996-.563-1.15001586-.8440113-1.97801586-.8440113-.824 0-1.4830146.2810113-1.9770146.8440113-.495.562-.7420063 1.32597362-.7420063 2.29097362V2.5080007c0 .957.2459982 1.7190323.7359982 2.2850323.49.566 1.1470064.8499527 1.9710064.8499527z" clip-path="url(#a)" transform="matrix(29.257143 0 0 -29.257143 335.45655 292.68553)"/>
</svg>
