<svg xmlns="http://www.w3.org/2000/svg" viewBox="0 0 512 512">
  <defs>
    <clipPath id="a" clipPathUnits="userSpaceOnUse">
      <path d="M-24.000001 15.999999h32v-32h-32Z"/>
    </clipPath>
  </defs>
  <path fill="none" stroke="#000" stroke-miterlimit="10" stroke-width="1.5" d="M-8.0000002 7.9999828C-12.418 7.9999828-15.999983 4.418-15.999983 0c0-4.418 3.581983-7.9999828 7.9999828-7.9999828C-3.5820002-7.9999828-.00001741-4.418-.00001741 0c0 4.418-3.58198279 7.9999828-7.99998279 7.9999828zm-.00921-3.6108971c.829 0 1.490024-.2839526 1.984024-.8499526s.741005-1.3280323.741005-2.2850323v-2.5080013c0-.965-.2449968-1.7289737-.7349968-2.2909737-.491-.563-1.1500159-.8440113-1.9780159-.8440113-.824 0-1.4830145.2810113-1.9770145.8440113-.4950006.562-.7420066 1.3259737-.7420066 2.2909737v2.5080013c0 .957.245999 1.7190323.7359984 2.2850323.49.566 1.1470064.8499526 1.9710064.8499526z" clip-path="url(#a)" transform="matrix(29.257143 0 0 -29.257143 490.05715 256)"/>
</svg>
