<svg xmlns="http://www.w3.org/2000/svg" viewBox="0 0 512 512">
  <defs>
    <clipPath id="a" clipPathUnits="userSpaceOnUse">
      <path d="M-18.7158 17.2539h32v-32h-32Z"/>
    </clipPath>
  </defs>
  <path fill="none" stroke="#000" stroke-width="1.5" d="M0 0c0-.965-.245-1.729-.735-2.291-.491-.563-1.15-.844-1.978-.844-.824 0-1.483.281-1.977.844-.495.562-.742 1.326-.742 2.291v2.508c0 .957.246 1.719.736 2.285.49.566 1.147.85 1.971.85.829 0 1.49-.284 1.984-.85C-.247 4.227 0 3.465 0 2.508Z" clip-path="url(#a)" transform="matrix(29.257143 0 0 -29.257143 335.45655 292.68553)"/>
</svg>
