<svg xmlns="http://www.w3.org/2000/svg" xml:space="preserve" viewBox="0 0 52.916666 8.4666662">
  <path d="M9.4886206 4.22506553a4.2201046 4.2201046 0 0 1-1.47174493 3.24445345 4.32759158 4.32759158 0 0 1-2.17289085.99714854c.58704433-.33238285.91446624-.87312509.91446624-1.32787774 0-.73091153-.44317713-.64161465-.57216151-.53412766v-.72925788c.2844271-.29930993.39852868-.69287768.3059245-1.04510427a.91446624.91446624 0 0 0-.3059245-.4779037V2.933568l.1223698.03803386c.10252605-.0214974.11410157-.18024741 0-.23812502l-.06283855-.01984375h-.00496094l-.05457031-.01653646c-.2298568-.06614584-.4779037-.10914064-.77225269-.0644922-.32576826.04795574-.62011725.19182294-.8450131.453099-.01488282.01819011-.02976563.03472657-.0429948.05291668l-.00330729.00330729-.03472657.04630209-.01322916.0181901-.0214974.03307292-.0181901.02645834c-.01653647.02645834-.03307293.05457032-.04795574.0826823-.11244793.2050521-.14221356.44979171-.11410158.65649746.03141928.2480469.15378908.44152348.29600264.58704433v.69122403a.31915368.31915368 0 0 0-.16371096-.01984375c-.21001304.02645833-.37868493.15875001-.34395836.42994796.02976562.21828127.21662762.49940109.60523443.60854173.1008724.21993491.26458336.41671879.42994796.50766932 0 0-.48782557.08598959-.86485686-.20009117a3.15350292 3.15350292 0 0 1-.22489585.24473961c-.87973967.85824227-1.70656267 1.10298188-2.39613306 1.22535169 0 0 1.25346367-.98061208 1.25346367-2.29526065 0-.97730479-.02480469-3.36186232-.02480469-3.36186232-.46632817-.44648442-1.15589855.19678387-1.78097674.83343758.12071616-.5787761.65649746-2.06044291 2.36471378-2.86411487l.68626309.7689454L5.26686237 0A4.27632856 4.27632856 0 0 1 8.5394278 1.58750016c.09756512.02315104.43325526.05953126.91777353-.40183598 0 0-.4134115 1.66522152-1.58253922 1.77766945v2.19934918a.5142839.5142839 0 0 0 .50105474.53247401.453099.453099 0 0 0 .14882814-.01653646c.5357813-.1223698.96407562-1.45355483.96407562-1.45355483z"/>
  <path stroke="#fff" stroke-miterlimit="10" stroke-width=".01653646" d="M6.18628955 5.87540424c-.21828128.2298568-.53743495.40183598-.93927093.45475265-.2298568.02976563-.42167973.01322917-.58042975-.02976563-.3886068-.10914064-.5754688-.39026046-.60523443-.60854173-.03472657-.27119794.13394532-.40348962.34395836-.42994796a.31915368.31915368 0 0 1 .16371096.01984375c.14882814.05622397.25796877.21001305.27781253.36710942a.5969662.5969662 0 0 1 .00661458.11244792c.00165365.06283855-.0214974.1256771-.01157552.19513023.0214974.1653646.26789065.17694012.42498702.15544273.35388024-.0463021.5820834-.34561202.54404953-.63169278-.03803385-.28608075-.25300783-.35884118-.34230472-.3919141l-.43656254-.18024741a1.53789078 1.53789078 0 0 1-.46302088-.31750003c-.14221356-.14552085-.26458336-.33899743-.29600264-.58704433-.02811198-.20670575.00165365-.45144536.11410158-.65649747.01488281-.02811198.03141927-.05622396.04795573-.0826823l.0181901-.02645833.0214974-.03307292a.17363283.17363283 0 0 1 .01322917-.0181901l.03472657-.0463021.0033073-.00330729c.01322916-.0181901.02811197-.03472656.04299479-.05291667.22489585-.26127607.51924484-.40514327.8450131-.453099.294349-.04464845.5423959-.00165365.77225269.06449219l.05457031.01653646h.00496094l.06283855.01984375c.11410157.05787761.10252605.21662763 0 .23812503l-.1223698-.03803386c-.2083594-.05953126-.42333338-.09591147-.67964851-.05457032-.33734378.05622396-.48947922.21001304-.54404953.4316016-.06283855.26127607.10252605.48947922.31584638.57050788l.36710941.15709637c.21993492.09921876.40018234.19843752.54074225.31419274a.91446624.91446624 0 0 1 .3059245.47790369c.09260418.35388024-.0214974.747448-.3059245 1.04675792z"/>
  <path fill-rule="evenodd" d="M49.15376 4.1981438c0 .9149288 2.704571.3619497 2.704571 2.2219704 0 1.0054167-.874712 1.5483417-1.960562 1.5483417-1.005417 0-1.729317-.452438-2.05105-1.1763375l.935037-.542925c.160867.4524375.563034.7238995 1.116013.7238995.4826 0 .854604-.160866.854604-.5630329 0-.8948207-2.704571-.3921124-2.704571-2.1918082 0-.9450916.814388-1.5382873 1.839913-1.5382873.824441 0 1.508124.3820582 1.86002 1.0456332l-.914929.5127625c-.180975-.3921125-.532871-.5730875-.945091-.5730875-.392113 0-.733955.1709208-.733955.5328711zm-4.63497 0c0 .9149288 2.70457.3619497 2.70457 2.2219704 0 1.0054167-.874712 1.5483417-1.960562 1.5483417-1.005417 0-1.729316-.452438-2.05105-1.1763375l.935038-.542925c.160866.4524375.563033.7238995 1.116012.7238995.4826 0 .854604-.160866.854604-.5630329 0-.8948207-2.70457-.3921124-2.70457-2.1918082 0-.9450916.814387-1.5382873 1.839912-1.5382873.824442 0 1.508125.3820582 1.860021 1.0456332l-.914929.5127625c-.180975-.3921125-.532871-.5730875-.945092-.5730875-.392113 0-.733954.1709208-.733954.5328711zm-4.051829 3.7703121c-1.518179 0-2.6543-1.156229-2.6543-2.6442455 0-1.4980708 1.136121-2.6442459 2.6543-2.6442459.985308 0 1.839912.5127626 2.242079 1.2969876l-.935038.542925c-.221191-.4725458-.713845-.7741708-1.317095-.7741708-.884767 0-1.558396.6736291-1.558396 1.5785041 0 .9048749.673629 1.5785045 1.558396 1.5785045.60325 0 1.095904-.3116796 1.337204-.7741712l.935037.5328708c-.422275.7942784-1.276879 1.3070414-2.262187 1.3070414Zm-5.998633-3.7703121c0 .9149288 2.70457.3619497 2.70457 2.2219707 0 1.0054164-.874712 1.5483414-1.960562 1.5483414-1.005417 0-1.729316-.452437-2.05105-1.1763373l.935038-.542925c.160866.4524375.563033.7239003 1.116012.7239003.4826 0 .854604-.160867.854604-.5630336 0-.8948208-2.70457-.3921125-2.70457-2.1918082 0-.9450916.814387-1.5382876 1.839912-1.5382876.824442 0 1.508125.3820585 1.860021 1.0456334l-.914929.5127625c-.180975-.3921125-.532871-.5730875-.945092-.5730875-.392113 0-.733954.1709209-.733954.5328709zm-4.746096 3.6396081c-1.126066 0-1.9304-.764117-1.9304-2.0711582V2.6799645h1.08585v2.9760331c0 .7641166.442384 1.1662833 1.126067 1.1662833.713846 0 1.276879-.4222748 1.276879-1.4478V2.6799645h1.08585v5.0270834h-1.08585v-.643467c-.331788.522817-.874713.774171-1.558396.774171zm-3.826933 0V.49821049h1.08585V7.8377519Zm-2.342621 0V2.8106687h1.08585v5.0270832zm.542925-5.7811457c-.382058 0-.693737-.3217333-.693737-.6937374a.69506038.69506038 0 0 1 .693737-.69373751.69506038.69506038 0 0 1 .693738.69373751c0 .3720041-.311679.6937374-.693738.6937374zm-4.654926.6231144c-1.367366 0-2.503723 1.1462124-2.503723 2.6442829 0 1.4880164 1.136357 2.6442824 2.503723 2.6442824.784225 0 1.377525-.32134 1.759583-.854211v.72347h1.08572V2.810462h-1.08572v.7141685c-.382058-.5228169-.975358-.8449099-1.759583-.8449099Zm.170532 1.0355956c.904875 0 1.589051.6736498 1.589051 1.6086873 0 .9350374-.684176 1.6086874-1.589051 1.6086874-.904874 0-1.588533-.67365-1.588533-1.6086874 0-.9350372.683659-1.6086873 1.588533-1.6086873zm-5.080822-1.0353517c1.126067 0 1.9304.7641165 1.9304 2.0711581v3.0866293h-1.08585V4.8617185c0-.7641167-.442383-1.1662833-1.126067-1.1662833-.713845 0-1.276879.422275-1.276879 1.4477999v2.6945168h-1.08585V2.8106687h1.08585v.6434665c.331788-.5228165.874713-.7741707 1.558396-.7741707z" clip-rule="evenodd"/>
</svg>
