<svg xmlns="http://www.w3.org/2000/svg" viewBox="0 0 341.8 512"><path d="M426.9,14.5c0-12-2.4-14.4-14.2-14.4q-120,0-240-.1c-10.4,0-18.8,3.1-26.1,10.6-16.9,17.4-34,34.5-51.4,51.5-7,6.9-10.1,14.8-10.1,24.6q.2,206,.1,412c0,10.5,2.8,13.3,13.1,13.3H413.7c10.4,0,13.2-2.8,13.2-13.3V14.5Zm-264.3,124H135.3V48.7h27.3v89.8Zm82.1,0H217.4V19.4h27.3V138.5Zm42.8,0H260.3V48.7h27.2Zm42.9,0H303.1V19.4h27.3Zm42.8,0H345.9V48.7h27.3Zm42.8,0H388.7V48.7H416Zm-214.1,0H174.6V48.7h27.3v89.8Zm-78.6,20.9H96V69.6h27.3v89.8ZM396,480H116V400H396Z" transform="translate(-85.1 0)"/></svg>