<svg xmlns="http://www.w3.org/2000/svg" viewBox="0 0 341.8 512">
  <path d="M341.8 14.5c0-12-2.4-14.4-14.2-14.4q-120 0-240-.1C77.2 0 68.8 3.1 61.5 10.6 44.6 28 27.5 45.1 10.1 62.1 3.1 69 0 76.9 0 86.7q.2 206 .1 412c0 10.5 2.8 13.3 13.1 13.3h315.4c10.4 0 13.2-2.8 13.2-13.3V14.5Zm-264.3 124H50.2V48.7h27.3v89.8Zm82.1 0h-27.3V19.4h27.3v119.1Zm42.8 0h-27.2V48.7h27.2Zm42.9 0H218V19.4h27.3Zm42.8 0h-27.3V48.7h27.3Zm42.8 0h-27.3V48.7h27.3Zm-214.1 0H89.5V48.7h27.3v89.8Zm-78.6 20.9H10.9V69.6h27.3v89.8ZM310.9 480h-280v-80h280Z"/>
</svg>
