<svg xmlns="http://www.w3.org/2000/svg" viewBox="0 0 392.4 512">
  <path fill="#010101" d="M355.3 0H89.4a37.1 37.1 0 0 0-37.1 37.1v119.5a26.2 26.2 0 0 1-8.9 19.8L8.9 207A26.2 26.2 0 0 0 0 226.8v46.3a5.3 5.3 0 0 0 5.3 5.3h13.4a7.5 7.5 0 0 1 7.5 7.4V326a16.1 16.1 0 0 1-4.7 11.3L4.6 354.1A16.2 16.2 0 0 0 0 365.4v109.5A37.1 37.1 0 0 0 37.1 512h318.2a37.1 37.1 0 0 0 37.1-37.1V37.1A37.1 37.1 0 0 0 355.3 0ZM134.5 136.4h-25.6v-86h25.6v86Zm77 0h-25.6v-114h25.6v114Zm40.1 0H226v-86h25.6Zm40.2 0h-25.6v-114h25.6Zm40.1 0h-25.6v-86h25.6Zm40.2 0h-25.6v-86h25.6Zm-200.7 0h-25.6v-86h25.6v86Zm-73.8 0H72.1v-86h25.5v86Z"/>
</svg>
