<svg xmlns="http://www.w3.org/2000/svg" xml:space="preserve" viewBox="0 0 52.916666 8.4666662">
  <g fill="none" stroke="#000" stroke-width=".0661458">
    <path d="M9.4886206 4.225065a4.2201046 4.2201046 0 0 1-1.4717449 3.2444534 4.3275916 4.3275916 0 0 1-2.1728909.9971485c.5870444-.3323828.9144663-.873125.9144663-1.3278777 0-.7309115-.4431772-.6416146-.5721616-.5341277v-.7292578c.2844272-.29931.3985287-.6928777.3059246-1.0451043a.91446624.91446624 0 0 0-.3059246-.4779037V2.9335674l.1223698.038034c.1025261-.021497.1141016-.1802474 0-.238125l-.062839-.019844h-.00496l-.05457-.016536c-.2298575-.0661462-.4779044-.109141-.7722534-.0644925-.3257683.0479557-.6201173.1918229-.8450131.453099-.014883.01819-.029766.034727-.042995.052917l-.00331.00331-.034727.046302-.013229.01819-.021497.033073-.01819.026458c-.016536.026458-.033073.05457-.047956.082682-.112445.2050498-.1422107.4497894-.1140987.6564951.0314193.2480469.1537891.4415235.2960027.5870444v.691224a.31915368.31915368 0 0 0-.163711-.019844c-.210013.026458-.3786849.1587501-.3439584.429948.029766.2182813.2166277.4994011.6052345.6085417.1008724.2199349.2645833.4167188.4299479.5076694 0 0-.4878255.08599-.8648568-.2000912a3.1535029 3.1535029 0 0 1-.2248959.2447398c-.8797397.8582423-1.7065627 1.1029819-2.396133 1.2253517 0 0 1.2534636-.9806121 1.2534636-2.2952607 0-.9773048-.024805-3.3618623-.024805-3.3618623-.4663278-.4464844-1.1558982.1967839-1.7809764.8334376.1207162-.5787761.6564975-2.0604429 2.3647138-2.86411487l.6862631.76894537L5.2668624-5.7e-7A4.2763286 4.2763286 0 0 1 8.5394278 1.5874996c.097565.023151.4332553.059531.9177735-.401836 0 0-.4134115 1.6652215-1.5825392 1.7776695v2.1993491a.51428391.51428391 0 0 0 .5010548.532474.453099.453099 0 0 0 .1488281-.0165364c.5357813-.1223698.9640756-1.4535548.9640756-1.4535548Z"/>
    <path stroke-miterlimit="10" d="M6.1862895 5.8754037c-.2182812.2298568-.5374349.4018359-.9392709.4547526-.2298568.0297656-.4216797.0132292-.5804297-.0297656-.3886068-.1091407-.5754688-.3902605-.6052345-.6085417-.0347265-.271198.1339454-.4034897.3439584-.429948a.31915368.31915368 0 0 1 .163711.019844c.1488281.056224.2579687.2100131.2778125.3671095a.59696621.59696621 0 0 1 .00661.1124479c.00165.062838-.021497.1256771-.011576.1951302.0215024.1653643.2678957.1769398.4249921.1554424.3538802-.046302.5820834-.345612.5440495-.6316927-.0380339-.2860808-.2530078-.3588412-.3423047-.3919141l-.4365626-.1802474a1.5378908 1.5378908 0 0 1-.4630208-.3175001c-.1422136-.1455208-.2645834-.3389974-.2960027-.5870443-.028112-.2067058.0016537-.4514454.1141016-.6564975.0148828-.028112.0314193-.0562239.0479557-.0826823l.01819-.026458.021497-.033073a.17363283.17363283 0 0 1 .013229-.01819l.034727-.046302.00331-.00331c.013229-.01819.028112-.034727.042995-.052917.2248958-.2612761.5192448-.4051433.8450131-.453099.294349-.044648.5423959-.00165.7722526.064492l.05457.016536h.00496l.062839.019844c.1141015.057878.102526.2166276 0 .238125l-.1223716-.0380308c-.2083593-.0595313-.4233333-.0959115-.6796485-.0545703-.3373437.0562239-.4894792.210013-.5440495.4316016-.0628385.261276.1025261.4894792.3158464.5705078l.3671094.1570964c.2199349.099219.4001823.1984375.5407422.3141928a.91446624.91446624 0 0 1 .3059246.4779036c.092604.3538803-.021497.747448-.3059246 1.046758z"/>
    <path d="M49.15376 4.1981437c0 .9149288 2.704571.3619497 2.704571 2.2219704 0 1.0054166-.874713 1.5483416-1.960563 1.5483416-1.005416 0-1.729316-.4524375-2.051049-1.1763374l.935037-.542925c.160867.4524375.563033.7239 1.116012.7239.4826 0 .854605-.1608667.854605-.5630333 0-.8948208-2.704571-.3921125-2.704571-2.1918083 0-.9450916.814387-1.5382872 1.839912-1.5382872.824442 0 1.508125.3820581 1.860021 1.0456331l-.914929.5127625c-.180975-.3921125-.532871-.5730875-.945092-.5730875-.392112 0-.733954.1709208-.733954.5328711zm-4.63497 0c0 .9149288 2.70457.3619497 2.70457 2.2219704 0 1.0054166-.874712 1.5483416-1.960562 1.5483416-1.005417 0-1.729317-.4524375-2.05105-1.1763374l.935037-.542925c.160867.4524375.563034.7239 1.116013.7239.4826 0 .854604-.1608667.854604-.5630333 0-.8948208-2.704571-.3921125-2.704571-2.1918083 0-.9450916.814388-1.5382872 1.839913-1.5382872.824441 0 1.508125.3820581 1.86002 1.0456331l-.914929.5127625c-.180975-.3921125-.53287-.5730875-.945091-.5730875-.392113 0-.733954.1709208-.733954.5328711zM40.466961 7.968456c-1.518179 0-2.6543-1.1562291-2.6543-2.6442457 0-1.4980708 1.136121-2.6442458 2.6543-2.6442458.985308 0 1.839912.5127626 2.242079 1.2969875l-.935038.542925c-.221191-.4725458-.713846-.7741708-1.317096-.7741708-.884766 0-1.558395.6736291-1.558395 1.5785041 0 .9048749.673629 1.5785041 1.558395 1.5785041.60325 0 1.095905-.3116792 1.337205-.7741708l.935037.5328708c-.422275.7942788-1.276879 1.3070416-2.262187 1.3070416Zm-5.998633-3.7703123c0 .9149288 2.70457.3619497 2.70457 2.2219707 0 1.0054166-.874712 1.5483416-1.960562 1.5483416-1.005417 0-1.729317-.4524375-2.05105-1.1763375l.935037-.5429249c.160867.4524374.563034.7238999 1.116013.7238999.4826 0 .854604-.1608666.854604-.5630333 0-.8948208-2.704571-.3921125-2.704571-2.1918082 0-.9450916.814388-1.5382875 1.839913-1.5382875.824441 0 1.508125.3820584 1.86002 1.0456334l-.914929.5127624c-.180975-.3921124-.53287-.5730874-.945091-.5730874-.392113 0-.733954.1709208-.733954.5328708zm-4.746096 3.6396081c-1.126067 0-1.9304-.7641166-1.9304-2.0711582V2.6799645h1.08585v2.976033c0 .7641166.442383 1.1662835 1.126067 1.1662835.713845 0 1.276879-.4222749 1.276879-1.4478001V2.6799645h1.08585v5.0270832h-1.08585V7.063581c-.331788.5228167-.874713.7741708-1.558396.7741708Zm-3.826933 0V.4982104h1.08585v7.3395414zm-2.342621 0V2.8106686h1.08585v5.0270832zm.542925-5.7811456c-.382058 0-.693737-.3217334-.693737-.6937375a.69506038.69506038 0 0 1 .693737-.69373748.69506038.69506038 0 0 1 .693738.69373748c0 .3720041-.31168.6937375-.693738.6937375zm-4.654926.6231143c-1.367366 0-2.503723 1.1462124-2.503723 2.6442829 0 1.4880166 1.136357 2.6442827 2.503723 2.6442827.784225 0 1.377524-.3213401 1.759583-.8542112v.72347h1.08572v-5.027083h-1.08572v.7141685c-.382059-.5228169-.975358-.8449099-1.759583-.8449099Zm.170532 1.0355957c.904875 0 1.589051.6736497 1.589051 1.6086872 0 .9350374-.684176 1.6086872-1.589051 1.6086872s-1.588533-.6736498-1.588533-1.6086872c0-.9350372.683658-1.6086872 1.588533-1.6086872zm-5.080822-1.0353517c1.126067 0 1.9304.7641164 1.9304 2.071158v3.0866291h-1.08585V4.8617184c0-.7641167-.442383-1.1662833-1.126067-1.1662833-.713846 0-1.276879.422275-1.276879 1.4477999v2.6945166h-1.08585v-5.027083h1.08585v.6434665c.331788-.5228165.874713-.7741706 1.558396-.7741706z" clip-rule="evenodd"/>
  </g>
</svg>
