<svg xmlns="http://www.w3.org/2000/svg" xml:space="preserve" viewBox="0 0 44.979166 8.4666662">
  <path fill="none" stroke="#000" stroke-width=".0661458" d="M9.4886206 4.225065a4.2201046 4.2201046 0 0 1-1.4717449 3.2444534 4.3275916 4.3275916 0 0 1-2.1728909.9971485c.5870444-.3323828.9144663-.873125.9144663-1.3278777 0-.7309115-.4431772-.6416146-.5721616-.5341277v-.7292578c.2844272-.29931.3985287-.6928777.3059246-1.0451043a.91446624.91446624 0 0 0-.3059246-.4779037V2.9335674l.1223698.038034c.1025261-.021497.1141016-.1802474 0-.238125l-.062839-.019844h-.00496l-.05457-.016536c-.2298575-.0661462-.4779044-.109141-.7722534-.0644925-.3257683.0479557-.6201173.1918229-.8450131.453099-.014883.01819-.029766.034727-.042995.052917l-.00331.00331-.034727.046302-.013229.01819-.021497.033073-.01819.026458c-.016536.026458-.033073.05457-.047956.082682-.112445.2050498-.1422107.4497894-.1140987.6564951.0314193.2480469.1537891.4415235.2960027.5870444v.691224a.31915368.31915368 0 0 0-.163711-.019844c-.210013.026458-.3786849.1587501-.3439584.429948.029766.2182813.2166277.4994011.6052345.6085417.1008724.2199349.2645833.4167188.4299479.5076694 0 0-.4878255.08599-.8648568-.2000912a3.1535029 3.1535029 0 0 1-.2248959.2447398c-.8797397.8582423-1.7065627 1.1029819-2.396133 1.2253517 0 0 1.2534636-.9806121 1.2534636-2.2952607 0-.9773048-.024805-3.3618623-.024805-3.3618623-.4663278-.4464844-1.1558982.1967839-1.7809764.8334376.1207162-.5787761.6564975-2.0604429 2.3647138-2.86411487l.6862631.76894537L5.2668624-5.7e-7A4.2763286 4.2763286 0 0 1 8.5394278 1.5874996c.097565.023151.4332553.059531.9177735-.401836 0 0-.4134115 1.6652215-1.5825392 1.7776695v2.1993491a.51428391.51428391 0 0 0 .5010548.532474.453099.453099 0 0 0 .1488281-.0165364c.5357813-.1223698.9640756-1.4535548.9640756-1.4535548Z"/>
  <path fill="none" stroke="#000" stroke-miterlimit="10" stroke-width=".0661458" d="M6.1862895 5.8754037c-.2182812.2298568-.5374349.4018359-.9392709.4547526-.2298568.0297656-.4216797.0132292-.5804297-.0297656-.3886068-.1091407-.5754688-.3902605-.6052345-.6085417-.0347265-.271198.1339454-.4034897.3439584-.429948a.31915368.31915368 0 0 1 .163711.019844c.1488281.056224.2579687.2100131.2778125.3671095a.59696621.59696621 0 0 1 .00661.1124479c.00165.062838-.021497.1256771-.011576.1951302.0215024.1653643.2678957.1769398.4249921.1554424.3538802-.046302.5820834-.345612.5440495-.6316927-.0380339-.2860808-.2530078-.3588412-.3423047-.3919141l-.4365626-.1802474a1.5378908 1.5378908 0 0 1-.4630208-.3175001c-.1422136-.1455208-.2645834-.3389974-.2960027-.5870443-.028112-.2067058.0016537-.4514454.1141016-.6564975.0148828-.028112.0314193-.0562239.0479557-.0826823l.01819-.026458.021497-.033073a.17363283.17363283 0 0 1 .013229-.01819l.034727-.046302.00331-.00331c.013229-.01819.028112-.034727.042995-.052917.2248958-.2612761.5192448-.4051433.8450131-.453099.294349-.044648.5423959-.00165.7722526.064492l.05457.016536h.00496l.062839.019844c.1141015.057878.102526.2166276 0 .238125l-.1223716-.0380308c-.2083593-.0595313-.4233333-.0959115-.6796485-.0545703-.3373437.0562239-.4894792.210013-.5440495.4316016-.0628385.261276.1025261.4894792.3158464.5705078l.3671094.1570964c.2199349.099219.4001823.1984375.5407422.3141928a.91446624.91446624 0 0 1 .3059246.4779036c.092604.3538803-.021497.747448-.3059246 1.046758z"/>
  <path fill="none" stroke="#000" stroke-width=".0661458" d="M34.54762 4.1981438c0 .9149289 2.704571.3619497 2.704571 2.2219705 0 1.0054166-.874713 1.5483416-1.960563 1.5483416-1.005416 0-1.729316-.4524375-2.05105-1.1763375l.935038-.542925c.160867.4524375.563033.7239 1.116012.7239.4826 0 .854604-.1608667.854604-.5630333 0-.8948208-2.70457-.3921125-2.70457-2.1918082 0-.9450916.814387-1.5382873 1.839912-1.5382873.824442 0 1.508125.3820582 1.860021 1.0456331l-.914929.5127625c-.180975-.3921125-.532871-.5730875-.945092-.5730875-.392112 0-.733954.1709209-.733954.5328711zM29.801524 7.837752c-1.126066 0-1.930399-.7641167-1.930399-2.0711583V2.6799646h1.085849v2.976033c0 .7641167.442384 1.1662836 1.126067 1.1662836.713846 0 1.276879-.422275 1.276879-1.4478002V2.6799646h1.08585v5.0270832h-1.08585v-.6434666c-.331787.5228166-.874712.7741708-1.558396.7741708Zm-3.826933 0V.49821053h1.08585V7.837752Zm-2.34262 0V2.8106687h1.085849V7.837752Zm.542925-5.7811457c-.382059 0-.693738-.3217333-.693738-.6937375a.69506038.69506038 0 0 1 .693738-.69373744.69506038.69506038 0 0 1 .693737.69373744c0 .3720042-.311679.6937375-.693737.6937375zm-4.654926.6231144c-1.367367 0-2.503723 1.1462123-2.503723 2.6442828 0 1.4880166 1.136356 2.6442828 2.503723 2.6442828.784224 0 1.377524-.3213402 1.759582-.8542113v.7234701h1.085721v-5.027083h-1.085721v.7141685c-.382058-.5228169-.975358-.8449099-1.759582-.8449099Zm.170532 1.0355956c.904875 0 1.58905.6736498 1.58905 1.6086872 0 .9350375-.684175 1.6086872-1.58905 1.6086872-.904875 0-1.588534-.6736497-1.588534-1.6086872 0-.9350372.683659-1.6086872 1.588534-1.6086872zm-5.080823-1.0353517c1.126067 0 1.9304.7641165 1.9304 2.0711581v3.086629h-1.08585V4.8617185c0-.7641166-.442383-1.1662833-1.126066-1.1662833-.713846 0-1.276879.422275-1.276879 1.4478v2.6945165h-1.08585v-5.027083h1.08585v.6434666c.331787-.5228166.874712-.7741707 1.558395-.7741707z" clip-rule="evenodd"/>
  <path fill="none" stroke="#000" stroke-width=".0661458" d="M43.310082 2.8245136c-.07197-.091406-.18175-.144549-.298058-.144549h-3.084269c-.209687 0-.379592.1699059-.379592.379593 0 .2096874.169905.3795932.379592.3795932h2.603249l-.232918.9722138c-.02111-.00349-.04236-.00653-.06453-.00653h-3.258732c-.209688 0-.379592.1699059-.379592.3795932 0 .2098389.169904.3795929.379592.3795929h3.14303l-.211508.8814155-1.685697 1.0917097-1.738993-1.1164593c-.175979-.1135743-.411175-.062253-.524142.1141817-.11327.176435-.06225.4113271.114181.5245978l1.945341 1.2488613c.06241.040541.133768.060128.205132.060128.07197 0 .143486-.020497.206345-.060735l2.018525-1.3074705c.08169-.053447.140147-.1358943.162618-.2304889l.771636-3.2221382c.02703-.1128152.00053-.2318556-.07121-.3231092z"/>
</svg>
