<svg xmlns="http://www.w3.org/2000/svg" viewBox="0 0 512 512"><path d="M481,254.2A225.4,225.4,0,0,0,415.1,96.9a230.3,230.3,0,0,0-26.6-22.8,224.5,224.5,0,0,0-98-40.5A235.2,235.2,0,0,0,257.8,31h-3.6a235.2,235.2,0,0,0-32.7,2.6,224.5,224.5,0,0,0-98,40.5,226.9,226.9,0,0,0-49.4,49.4A224.3,224.3,0,0,0,31,254.2v3.6h0A225.1,225.1,0,0,0,254.2,481h3.6A225.1,225.1,0,0,0,481,257.8v-3.6Zm-36,3.6c-.1,6.1-.5,12.2-1.1,18.2v.8a2.8,2.8,0,0,1-.1.9,164.1,164.1,0,0,1-2.8,17.3c0,.3-.1.6-.1.9a3.1,3.1,0,0,0-.2.8c-1.3,5.6-2.7,11.1-4.4,16.5h0l-.3.8-.3.9h0q-2.7,8.1-6,15.9h0l-.3.8-.4.8h0a187.7,187.7,0,0,1-19.2,33.5h.1l-.5.7-.5.7h-.1c-3.9,5.3-8,10.4-12.4,15.3h.1c-.1.2-.4.4-.6.6l-.5.7h-.2c-3.8,4.2-7.9,8.2-12.2,12.1h.2l-.7.6-.6.6-.2-.2a164.6,164.6,0,0,1-15.3,12.3v.2l-.7.5-.7.5h-.1a190.2,190.2,0,0,1-31.4,17.9h.1l-.8.4-.8.4v-.2a170,170,0,0,1-17.7,6.7v.2l-.9.3-.8.3v-.2c-5.6,1.7-11.4,3.2-17.2,4.5v.2l-.8.2h-.9v-.2c-5.5,1.2-11.2,2-16.9,2.7v.2h-1.8V444c-5.6.6-11.3.9-17,1h-3.6a177.3,177.3,0,0,1-17.9-1.1v.3h-1.8v-.2c-5.8-.7-11.6-1.6-17.2-2.8v.2l-.8-.2-.9-.2v-.2c-5.5-1.2-11-2.7-16.4-4.4v.2l-.8-.2-.8-.3v-.2q-8.1-2.7-15.9-6v.2l-.8-.3-.8-.4V429a186.8,186.8,0,0,1-33.5-19h-.1a1.8,1.8,0,0,1-.7-.5l-.7-.5v-.2c-5.3-3.8-10.4-8-15.3-12.3h-.1l-.7-.6-.6-.6h.1c-4.2-3.9-8.3-7.9-12.1-12.2h-.2l-.6-.6-.5-.7h.1a179,179,0,0,1-12.3-15.3h-.1l-.6-.7a1.8,1.8,0,0,0-.5-.7h.2a186.8,186.8,0,0,1-18-31.3h-.1l-.3-.8a3,3,0,0,1-.4-.8h.1a159.2,159.2,0,0,1-6.8-17.8h-.1a1.9,1.9,0,0,1-.2-.8l-.3-.8h0c-1.7-5.7-3.3-11.5-4.5-17.3h0a2.9,2.9,0,0,1-.2-.9c-.1-.3-.1-.5-.2-.8h0c-1.1-5.6-2-11.3-2.6-17h0c-.1-.3-.1-.6-.2-.9v-.9h0c-.6-5.7-.9-11.5-1-17.3h0v-3.6h0C68,151.3,151.3,68,254.2,67h3.6C360.7,68,444,151.3,445,254.2v3.6Zm-298,195-24.7,42.7a33,33,0,1,1-57.1-33l29-50.2A222.1,222.1,0,0,0,147,452.8Zm287.8,54.8a33,33,0,0,1-45.1-12.1L365,452.8a222.1,222.1,0,0,0,52.8-40.5l29,50.2A33.1,33.1,0,0,1,434.8,507.6ZM136,12.4h0L12.4,136h0a42.4,42.4,0,0,1,0-59.9L76.1,12.4A42.4,42.4,0,0,1,136,12.4ZM123.5,74.1a226.9,226.9,0,0,0-49.4,49.4L49.5,98.9,98.9,49.5ZM499.6,136h0L376,12.4h0a42.4,42.4,0,0,1,59.9,0l63.7,63.7A42.4,42.4,0,0,1,499.6,136ZM462.5,98.9l-24.6,24.7a223.2,223.2,0,0,0-22.8-26.7,230.3,230.3,0,0,0-26.6-22.8l24.6-24.6Z" transform="translate(0 0)"/><path d="M381.6,328.5h0a1.8,1.8,0,0,0,.6,2.4L418.8,352l1.7-3L384,327.9A1.8,1.8,0,0,0,381.6,328.5Z" transform="translate(0 0)"/><path d="M130.4,183.5a1.8,1.8,0,0,0-.6-2.4L93.2,160l-.9,1.5a10.9,10.9,0,0,1-.8,1.5L128,184.1A1.8,1.8,0,0,0,130.4,183.5Z" transform="translate(0 0)"/><path d="M328.5,381.6h0a1.8,1.8,0,0,0-.6,2.4L349,420.5l3-1.7-21.1-36.6A1.8,1.8,0,0,0,328.5,381.6Z" transform="translate(0 0)"/><path d="M183.5,130.4a1.8,1.8,0,0,0,.6-2.4L163,91.5l-1.5.8-1.5.9,21.1,36.6A1.8,1.8,0,0,0,183.5,130.4Z" transform="translate(0 0)"/><path d="M183.5,381.6h0a1.8,1.8,0,0,0-2.4.6L160,418.8l3,1.7L184.1,384A1.8,1.8,0,0,0,183.5,381.6Z" transform="translate(0 0)"/><path d="M349,91.5,327.9,128a1.7,1.7,0,1,0,3,1.8L352,93.2l-1.5-.9Z" transform="translate(0 0)"/><path d="M130.4,328.5h0a1.8,1.8,0,0,0-2.4-.6L91.5,349l1.7,3,36.6-21.1a1.8,1.8,0,0,0,.6-2.4Z" transform="translate(0 0)"/><path d="M384,184.1,420.5,163l-.8-1.5-.9-1.5-36.6,21.1a1.7,1.7,0,1,0,1.8,3Z" transform="translate(0 0)"/><path d="M257.8,67v42.2a1.8,1.8,0,0,1-3.6,0V67h3.6Z" transform="translate(0 0)"/><path d="M257.8,402.8V445h-3.6V402.8A1.8,1.8,0,0,1,256,401h0A1.8,1.8,0,0,1,257.8,402.8Z" transform="translate(0 0)"/><path d="M111,256h0a1.8,1.8,0,0,1-1.8,1.8H67v-3.6h42.2A1.8,1.8,0,0,1,111,256Z" transform="translate(0 0)"/><path d="M445,256v1.8H402.8a1.8,1.8,0,1,1,0-3.6H445Z" transform="translate(0 0)"/><path d="M258.2,239.3V194.5a2,2,0,0,0-4,0v44.8a16.9,16.9,0,1,0,4,0ZM241.8,256a14.2,14.2,0,0,1,28.4-.7h44.2a.8.8,0,0,1,.8.9.8.8,0,0,1-.8.8H270.2a14.2,14.2,0,0,1-28.4-1Z" transform="translate(0 0)"/></svg>