<svg xmlns="http://www.w3.org/2000/svg" viewBox="0 0 512 512"><path d="M258.2,239.3V194.5a2,2,0,0,0-4,0v44.8a16.9,16.9,0,1,0,4,0Zm0,0V194.5a2,2,0,0,0-4,0v44.8a16.9,16.9,0,1,0,4,0ZM256,270.4a14.2,14.2,0,0,1-.7-28.4V197.8a.9.9,0,0,1,.9-.8.9.9,0,0,1,.8.8v44.3a14.2,14.2,0,0,1-1,28.3ZM241.8,256a14.2,14.2,0,0,1,28.4-.7h44.2a.8.8,0,0,1,.8.9.8.8,0,0,1-.8.8H270.2a14.2,14.2,0,0,1-28.4-1Z"/><path d="M410.5,345.2h0a2.2,2.2,0,0,0,.8,3l45,25.9,2.1-3.7-44.9-26A2.2,2.2,0,0,0,410.5,345.2Z"/><path d="M101.5,166.8a2.3,2.3,0,0,0-.8-3l-45-25.9-1.1,1.9-1,1.8,44.9,26A2.2,2.2,0,0,0,101.5,166.8Z"/><path d="M345.2,410.5h0a2.2,2.2,0,0,0-.8,3l26,44.9,3.7-2.1-25.9-45A2.2,2.2,0,0,0,345.2,410.5Z"/><path d="M166.8,101.5a2.2,2.2,0,0,0,.8-3l-26-44.9-1.8,1-1.9,1.1,25.9,45A2.3,2.3,0,0,0,166.8,101.5Z"/><path d="M166.8,410.5h0a2.3,2.3,0,0,0-3,.8l-25.9,45,3.7,2.1,26-44.9A2.2,2.2,0,0,0,166.8,410.5Z"/><path d="M370.4,53.6l-26,44.9a2.2,2.2,0,0,0,3.8,2.2l25.9-45-1.8-1.1Z"/><path d="M101.5,345.2h0a2.2,2.2,0,0,0-3-.8l-44.9,26,2.1,3.7,45-25.9a2.2,2.2,0,0,0,.8-3Z"/><path d="M413.5,167.6l44.9-26-1-1.8-1.1-1.9-45,25.9a2.3,2.3,0,0,0-.8,3A2.2,2.2,0,0,0,413.5,167.6Z"/><path d="M258.2,23.5V75.4a2.2,2.2,0,0,1-4.4,0V23.5h4.4Z"/><path d="M258.2,436.6v51.9h-4.4V436.6a2.2,2.2,0,0,1,2.2-2.2h0A2.2,2.2,0,0,1,258.2,436.6Z"/><path d="M77.6,256h0a2.2,2.2,0,0,1-2.2,2.2H23.5v-4.4H75.4A2.2,2.2,0,0,1,77.6,256Z"/><path d="M488.5,256v2.2H436.6a2.2,2.2,0,0,1,0-4.4h51.9Z"/><path d="M512,254a254.5,254.5,0,0,0-49.1-148.7A249.5,249.5,0,0,0,437,75a259.6,259.6,0,0,0-30.3-26A255.5,255.5,0,0,0,258,0h-4A255.5,255.5,0,0,0,105.3,49,263.7,263.7,0,0,0,49,105.3,255.1,255.1,0,0,0,0,254v4H0A254.8,254.8,0,0,0,71.9,433.8,254.5,254.5,0,0,0,254,512h4A256.2,256.2,0,0,0,512,258v-4Zm-23.5,4.2c-.1,7.5-.5,15-1.3,22.4,0,.3-.1.7-.1,1.1s-.1.7-.1,1a214.9,214.9,0,0,1-3.5,21.3,4.3,4.3,0,0,1-.2,1.1c-.1.3-.1.7-.2,1-1.5,6.9-3.3,13.7-5.4,20.3h0a4.2,4.2,0,0,1-.4,1l-.3,1h0c-2.2,6.7-4.7,13.2-7.4,19.6h0a10.4,10.4,0,0,0-.4,1,3.6,3.6,0,0,0-.4.9h-.1a238.6,238.6,0,0,1-23.5,41.2h.1l-.6.9-.7.8h-.1c-4.8,6.5-9.9,12.7-15.3,18.7l.2.2-.7.8a6,6,0,0,0-.8.8v-.2c-4.8,5.2-9.8,10.2-15,14.9v.2l-.8.7a2.7,2.7,0,0,1-.8.7h-.1a231.5,231.5,0,0,1-18.9,15.1l.2.2-.9.6-.9.6V446a233.7,233.7,0,0,1-38.6,22.1v.2l-1,.4-1,.5V469a227.9,227.9,0,0,1-21.8,8.3v.2l-1.1.3-1,.4v-.3c-6.9,2.2-14,4-21.2,5.6v.2l-1.1.3-1.1.2v-.3a206.5,206.5,0,0,1-20.9,3.2v.3l-1,.2h-1.1v-.3c-7,.6-14,1-21,1.1h-4.4c-7.4-.1-14.8-.5-22-1.3v.4l-1-.2h-1.1V487a214.7,214.7,0,0,1-21.3-3.4v.3l-1.1-.2-1-.3v-.3a199.9,199.9,0,0,1-20.2-5.3v.2l-1-.3-1-.3v-.3c-6.6-2.2-13.2-4.6-19.5-7.4v.3l-1-.5-1-.4v-.2a232.3,232.3,0,0,1-41.2-23.5l-.2.2-.9-.6-.8-.6v-.2c-6.5-4.8-12.8-9.9-18.8-15.2h-.2l-.8-.7-.8-.7.2-.2c-5.2-4.8-10.2-9.8-14.9-15l-.2.2-.7-.8-.7-.8v-.2c-5.3-6-10.4-12.3-15.1-18.8h-.2l-.6-.9-.6-.9h.1a235.9,235.9,0,0,1-22.1-38.5H44a10.4,10.4,0,0,0-.4-1l-.5-1h.1A229.7,229.7,0,0,1,34.9,328h-.1l-.3-1-.3-1h0c-2.2-7-4.1-14.1-5.6-21.3h0l-.3-1a4.3,4.3,0,0,0-.2-1.1h.1c-1.4-6.9-2.5-13.8-3.3-20.9h0a4.1,4.1,0,0,1-.1-1.1c-.1-.3-.1-.7-.2-1.1h.1q-1.1-10.5-1.2-21.3h0v-4.4h0C24.7,127.2,127.2,24.7,253.8,23.5h4.4c126.6,1.2,229.1,103.7,230.3,230.3v4.4Z"/></svg>