<svg xmlns="http://www.w3.org/2000/svg" viewBox="0 0 512 512"><path d="M258.2,239.3V194.5a2,2,0,0,0-4,0v44.8a16.9,16.9,0,1,0,4,0Zm0,0V194.5a2,2,0,0,0-4,0v44.8a16.9,16.9,0,1,0,4,0ZM256,270.4a14.2,14.2,0,0,1-.7-28.4V197.8a.9.9,0,0,1,.9-.8.9.9,0,0,1,.8.8v44.3a14.2,14.2,0,0,1-1,28.3ZM241.8,256a14.2,14.2,0,0,1,28.4-.7h44.2a.8.8,0,0,1,.8.9.8.8,0,0,1-.8.8H270.2a14.2,14.2,0,0,1-28.4-1Z"/><path d="M410.5,345.2h0a2.2,2.2,0,0,0,.8,3l45,25.9,2.1-3.7-44.9-26A2.2,2.2,0,0,0,410.5,345.2Z"/><path d="M101.5,166.8a2.3,2.3,0,0,0-.8-3l-45-25.9-1.1,1.9-1,1.8,44.9,26A2.2,2.2,0,0,0,101.5,166.8Z"/><path d="M345.2,410.5h0a2.2,2.2,0,0,0-.8,3l26,44.9,3.7-2.1-25.9-45A2.2,2.2,0,0,0,345.2,410.5Z"/><path d="M166.8,101.5a2.2,2.2,0,0,0,.8-3l-26-44.9-1.8,1-1.9,1.1,25.9,45A2.3,2.3,0,0,0,166.8,101.5Z"/><path d="M166.8,410.5h0a2.3,2.3,0,0,0-3,.8l-25.9,45,3.7,2.1,26-44.9A2.2,2.2,0,0,0,166.8,410.5Z"/><path d="M370.4,53.6l-26,44.9a2.2,2.2,0,0,0,3.8,2.2l25.9-45-1.8-1.1Z"/><path d="M101.5,345.2h0a2.2,2.2,0,0,0-3-.8l-44.9,26,2.1,3.7,45-25.9a2.2,2.2,0,0,0,.8-3Z"/><path d="M413.5,167.6l44.9-26-1-1.8-1.1-1.9-45,25.9a2.3,2.3,0,0,0-.8,3A2.2,2.2,0,0,0,413.5,167.6Z"/><path d="M258.2,23.5V75.4a2.2,2.2,0,0,1-4.4,0V23.5h4.4Z"/><path d="M258.2,436.6v51.9h-4.4V436.6a2.2,2.2,0,0,1,2.2-2.2h0A2.2,2.2,0,0,1,258.2,436.6Z"/><path d="M77.6,256h0a2.2,2.2,0,0,1-2.2,2.2H23.5v-4.4H75.4A2.2,2.2,0,0,1,77.6,256Z"/><path d="M488.5,256v2.2H436.6a2.2,2.2,0,0,1,0-4.4h51.9Z"/><path d="M256.6,405.6a11.4,11.4,0,0,0-6.6,2,10.4,10.4,0,0,0-4.2,4.9v-8.1c0-3.7,1-6.8,3-9a9.6,9.6,0,0,1,7.5-3.5,22.5,22.5,0,0,1,4,.4,14.2,14.2,0,0,1,3.4,1.5l.6-1.4a12.6,12.6,0,0,0-3.8-1.5,19.9,19.9,0,0,0-4.2-.4,11.1,11.1,0,0,0-8.6,3.9,14.7,14.7,0,0,0-3.4,10.1v12.1q0,6.4,3.3,10.5A10.5,10.5,0,0,0,256,431a10.9,10.9,0,0,0,8.4-3.5,12.5,12.5,0,0,0,3.3-9c0-4-1-7.2-2.9-9.5A10.4,10.4,0,0,0,256.6,405.6Zm6.8,20.8a9.5,9.5,0,0,1-7.4,3.2,9,9,0,0,1-7.4-3.6c-1.9-2.4-2.8-5.5-2.8-9.4h0a8.4,8.4,0,0,1,3.2-6.6,10.7,10.7,0,0,1,7.4-2.8c3.3,0,5.8,1,7.4,2.9s2.4,4.8,2.4,8.5A11.2,11.2,0,0,1,263.4,426.4Z"/><polygon points="229.2 84.6 239.3 82.4 239.3 121.5 240.8 121.5 240.8 81 229.2 83.3 229.2 84.6"/><path d="M261,119.9l11.4-13.4a63.2,63.2,0,0,0,6.1-8,13.3,13.3,0,0,0,2.2-6.8,10.7,10.7,0,0,0-2.9-7.9A10.8,10.8,0,0,0,270,81a11.1,11.1,0,0,0-8.6,3.4,11.7,11.7,0,0,0-3.1,8.3h1.4a10.4,10.4,0,0,1,2.7-7.4c1.7-2,4.3-2.9,7.6-2.9s5.4.8,6.9,2.4,2.2,3.9,2.2,6.8a13.2,13.2,0,0,1-1.4,5.6,37.4,37.4,0,0,1-5.2,7L258.9,120v1.5h23.9V120H261Z"/><path d="M394.9,319.4h-1.2l-12.9,19.1v.6h13.1v7.4h1v-7.4h4.7v-1h-4.7Zm-1,18.7H382.3l10-14.9,1.5-2.4h.1Z"/><polygon points="105.6 165.8 112.2 164.4 112.2 190.1 113.2 190.1 113.2 163.5 105.6 165 105.6 165.8"/><path d="M132.4,190.5a7.3,7.3,0,0,0,5.9-2.6,10.9,10.9,0,0,0,2.1-7.1v-7.7a10.9,10.9,0,0,0-2.1-7.1,8.2,8.2,0,0,0-11.8,0,10.9,10.9,0,0,0-2.1,7.1v7.7a10.9,10.9,0,0,0,2.1,7.1A7.3,7.3,0,0,0,132.4,190.5Zm-7-17.4a10.2,10.2,0,0,1,1.8-6.3,6.1,6.1,0,0,1,5.2-2.4,6.2,6.2,0,0,1,5.2,2.4,10.2,10.2,0,0,1,1.8,6.3v7.7a10.2,10.2,0,0,1-1.8,6.3,6.1,6.1,0,0,1-5.2,2.4,6.2,6.2,0,0,1-5.2-2.4,10.2,10.2,0,0,1-1.8-6.3Z"/><path d="M101.2,235.7a11.2,11.2,0,0,0-8.4,3.5c-2.2,2.3-3.2,5.3-3.2,9s.9,7.2,2.8,9.5,4.7,3.4,8.3,3.4a11.4,11.4,0,0,0,6.6-1.9,12.6,12.6,0,0,0,4.2-5v8.1a13.3,13.3,0,0,1-3,9.1,9.5,9.5,0,0,1-7.5,3.4,15.4,15.4,0,0,1-4-.4,12.2,12.2,0,0,1-3.4-1.4l-.6,1.4a14.2,14.2,0,0,0,3.8,1.4,20.1,20.1,0,0,0,4.2.5,10.9,10.9,0,0,0,8.5-3.9,14.9,14.9,0,0,0,3.4-10.1V250.2q0-6.6-3.3-10.5A10.6,10.6,0,0,0,101.2,235.7Zm10.3,14.6h0a8.5,8.5,0,0,1-3.3,6.6,11.1,11.1,0,0,1-7.3,2.8c-3.4,0-5.8-1-7.5-3s-2.4-4.8-2.4-8.5a11.4,11.4,0,0,1,2.8-7.9,9.5,9.5,0,0,1,7.4-3.1,9,9,0,0,1,7.4,3.6c1.9,2.3,2.9,5.5,2.9,9.4Z"/><path d="M422.9,265.2a8.7,8.7,0,0,0-2.2-6.2,11.3,11.3,0,0,0-5.9-3.5,11.5,11.5,0,0,0,5.3-3.5,8.6,8.6,0,0,0,1.9-5.6,10.2,10.2,0,0,0-3-7.8,11.3,11.3,0,0,0-8.1-2.9,12.1,12.1,0,0,0-8.3,3,9.7,9.7,0,0,0-3.2,7.8h1.3a8.8,8.8,0,0,1,2.9-6.8,10.7,10.7,0,0,1,7.3-2.6c3.2,0,5.6.9,7.2,2.6a9.2,9.2,0,0,1,2.5,6.5,7.9,7.9,0,0,1-2.9,6.1,11.7,11.7,0,0,1-7.8,2.4h-3v1.6h3c3.6,0,6.4.7,8.4,2.2s3.1,3.7,3.1,6.8a9,9,0,0,1-2.7,6.9c-1.8,1.7-4.3,2.5-7.6,2.5a11.5,11.5,0,0,1-8-2.8,9.4,9.4,0,0,1-3.2-7.3h-1.3v.2a9.6,9.6,0,0,0,3.7,8.4,14,14,0,0,0,8.8,3,12.1,12.1,0,0,0,8.5-3Q422.9,270.4,422.9,265.2Z"/><path d="M333.9,385.8a12.5,12.5,0,0,0-4,.7,7.9,7.9,0,0,0-2.5,1.7l1.1-11.3h11.7v-1H327.6l-1.4,14.5.8.3a5.2,5.2,0,0,1,2.4-2.9,9.6,9.6,0,0,1,4.6-.9,5.8,5.8,0,0,1,4.6,1.9,8,8,0,0,1,1.6,5.3c0,2.6-.5,4.6-1.6,5.9s-2.8,2-5.2,2a6.9,6.9,0,0,1-4.8-1.7,6.1,6.1,0,0,1-1.7-4.7H326a6.4,6.4,0,0,0,2,5.4,8,8,0,0,0,5.4,1.8c2.7,0,4.7-.8,5.9-2.4a9.8,9.8,0,0,0,2-6.4,8.5,8.5,0,0,0-2.1-6.1A6.5,6.5,0,0,0,333.9,385.8Z"/><polygon points="171.8 135.3 172.8 135.3 172.8 108.3 165.1 109.8 165.1 110.7 171.8 109.2 171.8 135.3"/><polygon points="185.6 110.7 192.3 109.2 192.3 135.3 193.3 135.3 193.3 108.3 185.6 109.8 185.6 110.7"/><polygon points="337.9 136.5 338.9 136.5 338.9 109.5 331.2 111 331.2 111.9 337.9 110.4 337.9 136.5"/><path d="M170.4,377.7h16.1a37.6,37.6,0,0,0-6.8,10.9,32,32,0,0,0-2.5,12.7v2.4h1v-2.4a31.1,31.1,0,0,1,2.7-13.2,41.5,41.5,0,0,1,6.8-10.4v-1H170.4Z"/><path d="M125.4,333.1a7,7,0,0,0,3.5-2.3,6.5,6.5,0,0,0,1.3-3.8,6.1,6.1,0,0,0-2.2-5.1,7.7,7.7,0,0,0-5.3-1.8,8.7,8.7,0,0,0-5.6,1.8,6.4,6.4,0,0,0-2.2,5.1,5.9,5.9,0,0,0,1.4,3.8,6.8,6.8,0,0,0,3.6,2.3,8.2,8.2,0,0,0-4.1,2.5,5.7,5.7,0,0,0-1.6,4.1,6.8,6.8,0,0,0,2.4,5.5,9.6,9.6,0,0,0,6.2,1.9,8.8,8.8,0,0,0,5.8-1.9,6.8,6.8,0,0,0,2.3-5.5,6.1,6.1,0,0,0-1.5-4.1A8.3,8.3,0,0,0,125.4,333.1Zm-7.5-2a5.3,5.3,0,0,1-2-4.2,5.4,5.4,0,0,1,2-4.3,7.4,7.4,0,0,1,4.8-1.5,6.8,6.8,0,0,1,4.6,1.6,5.6,5.6,0,0,1,0,8.4,6.8,6.8,0,0,1-4.5,1.5A7.7,7.7,0,0,1,117.9,331.1Zm10,13.3a7.5,7.5,0,0,1-5.1,1.7,8.4,8.4,0,0,1-5.5-1.7,5.5,5.5,0,0,1-2.1-4.6,5.7,5.7,0,0,1,2.1-4.5,8.9,8.9,0,0,1,5.4-1.7,8,8,0,0,1,5.1,1.7,5.7,5.7,0,0,1,2.1,4.5A5.5,5.5,0,0,1,127.9,344.4Z"/><path d="M382.9,173.6a7,7,0,0,1,1.8-5,6.6,6.6,0,0,1,5.1-1.9c2.1,0,3.6.5,4.6,1.6a6.5,6.5,0,0,1,1.5,4.6,7.6,7.6,0,0,1-1,3.7,27.5,27.5,0,0,1-3.4,4.7l-9.1,10.4v1h16v-1H383.8l7.6-8.9a45.4,45.4,0,0,0,4.1-5.3,9.4,9.4,0,0,0,1.4-4.5,6.6,6.6,0,0,0-7.1-7.2,7.5,7.5,0,0,0-5.7,2.3,7.2,7.2,0,0,0-2,5.5h.8Z"/><path d="M487.3,280.6c-.1.3-.1.7-.2,1a3.7,3.7,0,0,1-.1,1.1l-26.5-2.9a1.1,1.1,0,0,1-1-1.1h0a1,1,0,0,1,1.2-.9Z"/><path d="M24.7,232l26.6,3a1.2,1.2,0,0,0,1.2-1h0a1.1,1.1,0,0,0-1-1.2L25,229.9c-.1.4-.1.7-.2,1.1S24.7,231.7,24.7,232Z"/><path d="M483.6,304l-.3,1.1a3.6,3.6,0,0,1-.2,1L457,300.5a1.1,1.1,0,0,1-.9-1v-.3a1.3,1.3,0,0,1,1.4-.8Z"/><path d="M28.4,208.6l26.1,5.6a1.1,1.1,0,0,0,1.3-.8h0a1,1,0,0,0-.8-1.3l-26.2-5.6a3.6,3.6,0,0,1-.2,1C28.5,207.9,28.5,208.2,28.4,208.6Z"/><path d="M477.7,326.4l-.3,1a3,3,0,0,1-.4,1h0l-25.4-8.1a1.2,1.2,0,0,1-.8-1.1.4.4,0,0,1,.1-.3,1.1,1.1,0,0,1,1.4-.7l25.4,8.2Z"/><path d="M34.3,186.2l25.4,8.2a1.1,1.1,0,0,0,1.4-.7h0a1.2,1.2,0,0,0-.7-1.4l-25.5-8.1-.3,1Z"/><path d="M469.7,348l-.5,1a10.4,10.4,0,0,1-.4,1h-.1l-24.4-10.6a1.2,1.2,0,0,1-.7-1,.9.9,0,0,1,.1-.5,1.2,1.2,0,0,1,1.5-.5L469.6,348Z"/><path d="M42.3,164.6l24.5,10.6a1.1,1.1,0,0,0,1.5-.5h0a1.3,1.3,0,0,0-.6-1.5L43.2,162.6l-.5,1Z"/><path d="M487.1,230.9l-26.5,2.8a1.1,1.1,0,0,0-1,1.2h0a1.1,1.1,0,0,0,1.2,1l26.6-2.8c-.1-.4-.1-.7-.2-1.1A4.5,4.5,0,0,0,487.1,230.9Z"/><path d="M52.4,277.7a1.1,1.1,0,0,1-1,1.2l-26.5,2.8h-.1a3.7,3.7,0,0,0-.1-1.1c0-.4-.1-.7-.1-1.1h0l26.6-2.8h.1A1.1,1.1,0,0,1,52.4,277.7Z"/><path d="M483.4,207.9l-26.1,5.4a1.3,1.3,0,0,0-.9,1.3h0a1.1,1.1,0,0,0,1.3.9l26.2-5.5a3.6,3.6,0,0,1-.2-1Z"/><path d="M54.7,299.3l-26.1,5.4h-.1a4.3,4.3,0,0,0-.2-1.1c-.1-.3-.1-.7-.2-1h0l26.1-5.5h.3a1.2,1.2,0,0,1,1.1.9A1.2,1.2,0,0,1,54.7,299.3Z"/><path d="M477.2,184.6l-25.5,8.1a1.2,1.2,0,0,0-.7,1.4h0a1.1,1.1,0,0,0,1.4.7l25.4-8.1-.3-1.1Z"/><path d="M60.2,319.9,34.8,328h0l-.3-1a6.9,6.9,0,0,1-.4-1h.1l25.4-8.1h.3a1.1,1.1,0,0,1,.3,2.1Z"/><path d="M468,160.8l-24.4,10.8a1.2,1.2,0,0,0-.6,1.5h0a1.2,1.2,0,0,0,1.5.5l24.4-10.9-.5-1Z"/><path d="M68.4,341,44.1,351.8H44l-.5-.9a10.4,10.4,0,0,0-.4-1h.1L67.5,339H68a1.1,1.1,0,0,1,1,.6A1.2,1.2,0,0,1,68.4,341Z"/><path d="M280.2,25l-2.9,26.6a1.2,1.2,0,0,0,1,1.2h0a1.1,1.1,0,0,0,1.2-1l2.9-26.5-1.1-.2Z"/><path d="M234.6,461l-2.8,26.3v.3h-1l-1.1-.2V487l2.9-26.2a1,1,0,0,1,1.1-1h.1A1,1,0,0,1,234.6,461Z"/><path d="M303.7,28.7l-5.6,26.1a1.1,1.1,0,0,0,.8,1.3h0a1,1,0,0,0,1.3-.8l5.6-26.1-1.1-.3Z"/><path d="M213.9,457.8l-5.6,25.8v.3l-1.1-.2-1-.3v-.2l5.6-25.9a1.1,1.1,0,0,1,1-.9h.3A1.1,1.1,0,0,1,213.9,457.8Z"/><path d="M326.1,34.6,317.9,60a1.1,1.1,0,0,0,.7,1.4h0a1,1,0,0,0,1.3-.7l8.2-25.5-1-.3Z"/><path d="M194.1,452.6,186,477.8v.2l-1-.3-1-.3v-.3l8.1-25.2a1.2,1.2,0,0,1,1.1-.7h.3A1.1,1.1,0,0,1,194.1,452.6Z"/><path d="M347.7,42.6,337.1,67.1a1.1,1.1,0,0,0,.5,1.5h0a1.2,1.2,0,0,0,1.5-.6l10.6-24.5-1-.4Z"/><path d="M174.9,445.5l-10.6,24.2v.3l-1-.4-1-.5v-.2l10.6-24.3a1.2,1.2,0,0,1,1-.7h.4A1.2,1.2,0,0,1,174.9,445.5Z"/><path d="M230.6,25.2l2.8,26.5a1.1,1.1,0,0,0,1.2,1h0a1.1,1.1,0,0,0,1-1.2l-2.8-26.6h-1.1Z"/><path d="M281.3,487.4l-1,.2h-1.1v-.3l-2.8-26.3h0a1.1,1.1,0,0,1,1-1.1,1.1,1.1,0,0,1,1.2,1l2.7,26.2Z"/><path d="M207.6,28.9,213,55a1.2,1.2,0,0,0,1.3.9h0a1,1,0,0,0,.8-1.3l-5.4-26.2-1.1.2Z"/><path d="M304.4,483.7l-1.1.3-1,.2v-.3L296.8,458v-.2a1.1,1.1,0,0,1,.8-1.1,1.1,1.1,0,0,1,1.3.9l5.4,25.9Z"/><path d="M184.3,35.1l8.1,25.4a1.1,1.1,0,0,0,1.4.8h0a1.3,1.3,0,0,0,.7-1.4l-8.2-25.5-1,.4Z"/><path d="M327.7,477.5l-1,.3-1.1.4v-.3l-8.1-25.2v-.3a1.1,1.1,0,0,1,.7-1.1,1.1,1.1,0,0,1,1.4.8l8,25.2Z"/><path d="M160.4,44.3l10.9,24.4a1.1,1.1,0,0,0,1.4.6h0a1.2,1.2,0,0,0,.6-1.5L162.4,43.4l-1,.5Z"/><path d="M351.5,468.3l-1,.4-1,.5V469l-10.8-24.2a.9.9,0,0,1-.1-.5,1.1,1.1,0,0,1,.6-1,1.2,1.2,0,0,1,1.5.6l10.7,24.2Z"/><path d="M120.1,67.6l15.5,21.8a1,1,0,0,0,1.5.2h0a1.1,1.1,0,0,0,.3-1.5L121.8,66.4l-.8.6Z"/><path d="M391.9,445l-.9.6-.9.6V446l-15.4-21.5a1.4,1.4,0,0,1-.2-.7,1.2,1.2,0,0,1,.4-.8,1.1,1.1,0,0,1,1.6.2l15.3,21.6Z"/><path d="M99.6,84.2l17.9,19.9a1.1,1.1,0,0,0,1.5.1h0a1.1,1.1,0,0,0,.1-1.6L101.2,82.8l-.8.7Z"/><path d="M412.4,428.4l-.8.7-.8.7h-.2L392.9,410a1.1,1.1,0,0,1-.3-.8,1.3,1.3,0,0,1,.3-.8,1.2,1.2,0,0,1,1.6.1l17.7,19.7Z"/><path d="M83.1,100.7l19.8,18a1.1,1.1,0,0,0,1.6-.1h0a1.1,1.1,0,0,0-.1-1.5l-19.8-18-.7.8A6,6,0,0,1,83.1,100.7Z"/><path d="M428.8,411.9l-.7.8-.7.8-.2-.2-19.6-17.8a1,1,0,0,1-.1-1.5,1,1,0,0,1,1.5-.1l19.7,17.8Z"/><path d="M66.6,121.3l21.7,15.6a1.1,1.1,0,0,0,1.6-.2h0a1.1,1.1,0,0,0-.3-1.5L67.9,119.6l-.6.8Z"/><path d="M445.3,391.3l-.6.9-.6.8h-.2l-21.5-15.5a1.1,1.1,0,0,1-.5-.9,1.4,1.4,0,0,1,.2-.6,1,1,0,0,1,1.5-.2l21.6,15.5Z"/><path d="M444.7,120.4l-21.8,15.5a1.1,1.1,0,0,0-.3,1.5h0a1.2,1.2,0,0,0,1.6.3l21.7-15.5-.6-.9Z"/><path d="M89,376.7,67.5,392.1h-.2l-.6-.9-.7-.9h.2l21.6-15.4.6-.2a1.1,1.1,0,0,1,.6,2Z"/><path d="M428.1,99.9l-19.9,17.9a1.1,1.1,0,0,0-.1,1.5h0a1.1,1.1,0,0,0,1.6.1l19.8-17.9-.7-.8Z"/><path d="M103.7,394.8,84.1,412.5l-.2.2-.7-.8-.8-.8.2-.2,19.7-17.7a1.1,1.1,0,0,1,.7-.3.9.9,0,0,1,.8.4A1,1,0,0,1,103.7,394.8Z"/><path d="M411.5,83.5l-17.9,19.7a1.2,1.2,0,0,0,0,1.6h0a1.2,1.2,0,0,0,1.6-.1l17.9-19.8-.8-.7A2.7,2.7,0,0,0,411.5,83.5Z"/><path d="M118.4,409.4,100.6,429h-.2l-.8-.7-.8-.7.2-.2,17.8-19.6a1.2,1.2,0,0,1,.8-.4.9.9,0,0,1,.7.3A1.1,1.1,0,0,1,118.4,409.4Z"/><path d="M391,67,375.4,88.6a1.1,1.1,0,0,0,.2,1.6h0a1.1,1.1,0,0,0,1.5-.3l15.6-21.7-.8-.6Z"/><path d="M136.6,424l-15.5,21.4v.2l-.9-.6-.9-.6.2-.2,15.4-21.5a1.4,1.4,0,0,1,1-.5l.6.2A1.2,1.2,0,0,1,136.6,424Z"/><path d="M512,254a254.5,254.5,0,0,0-49.1-148.7A249.5,249.5,0,0,0,437,75a259.6,259.6,0,0,0-30.3-26A255.5,255.5,0,0,0,258,0h-4A255.5,255.5,0,0,0,105.3,49,263.7,263.7,0,0,0,49,105.3,255.1,255.1,0,0,0,0,254v4H0A254.8,254.8,0,0,0,71.9,433.8,254.5,254.5,0,0,0,254,512h4A256.2,256.2,0,0,0,512,258v-4Zm-23.5,4.2c-.1,7.5-.5,15-1.3,22.4,0,.3-.1.7-.1,1.1s-.1.7-.1,1a214.9,214.9,0,0,1-3.5,21.3,4.3,4.3,0,0,1-.2,1.1c-.1.3-.1.7-.2,1-1.5,6.9-3.3,13.7-5.4,20.3h0a4.2,4.2,0,0,1-.4,1l-.3,1h0c-2.2,6.7-4.7,13.2-7.4,19.6h0a10.4,10.4,0,0,0-.4,1,3.6,3.6,0,0,0-.4.9h-.1a238.6,238.6,0,0,1-23.5,41.2h.1l-.6.9-.7.8h-.1c-4.8,6.5-9.9,12.7-15.3,18.7l.2.2-.7.8a6,6,0,0,0-.8.8v-.2c-4.8,5.2-9.8,10.2-15,14.9v.2l-.8.7a2.7,2.7,0,0,1-.8.7h-.1a231.5,231.5,0,0,1-18.9,15.1l.2.2-.9.6-.9.6V446a233.7,233.7,0,0,1-38.6,22.1v.2l-1,.4-1,.5V469a227.9,227.9,0,0,1-21.8,8.3v.2l-1.1.3-1,.4v-.3c-6.9,2.2-14,4-21.2,5.6v.2l-1.1.3-1.1.2v-.3a206.5,206.5,0,0,1-20.9,3.2v.3l-1,.2h-1.1v-.3c-7,.6-14,1-21,1.1h-4.4c-7.4-.1-14.8-.5-22-1.3v.4l-1-.2h-1.1V487a214.7,214.7,0,0,1-21.3-3.4v.3l-1.1-.2-1-.3v-.3a199.9,199.9,0,0,1-20.2-5.3v.2l-1-.3-1-.3v-.3c-6.6-2.2-13.2-4.6-19.5-7.4v.3l-1-.5-1-.4v-.2a232.3,232.3,0,0,1-41.2-23.5l-.2.2-.9-.6-.8-.6v-.2c-6.5-4.8-12.8-9.9-18.8-15.2h-.2l-.8-.7-.8-.7.2-.2c-5.2-4.8-10.2-9.8-14.9-15l-.2.2-.7-.8-.7-.8v-.2c-5.3-6-10.4-12.3-15.1-18.8h-.2l-.6-.9-.6-.9h.1a235.9,235.9,0,0,1-22.1-38.5H44a10.4,10.4,0,0,0-.4-1l-.5-1h.1A229.7,229.7,0,0,1,34.9,328h-.1l-.3-1-.3-1h0c-2.2-7-4.1-14.1-5.6-21.3h0l-.3-1a4.3,4.3,0,0,0-.2-1.1h.1c-1.4-6.9-2.5-13.8-3.3-20.9h0a4.1,4.1,0,0,1-.1-1.1c-.1-.3-.1-.7-.2-1.1h.1q-1.1-10.5-1.2-21.3h0v-4.4h0C24.7,127.2,127.2,24.7,253.8,23.5h4.4c126.6,1.2,229.1,103.7,230.3,230.3v4.4Z"/></svg>