<svg xmlns="http://www.w3.org/2000/svg" viewBox="0 0 430 512"><path d="M471,295.3A215.2,215.2,0,0,0,289,84.5,230.5,230.5,0,0,0,257.7,82h-3.4A230.5,230.5,0,0,0,223,84.5C120.5,100.3,41.8,188.6,41,295.3v3.4h0c.9,117.4,95.9,212.4,213.3,213.3h3.4c117.4-.9,212.4-95.9,213.3-213.3v-3.4Zm-34.4,3.4A180.6,180.6,0,0,1,257.7,477.6h-3.4A180.6,180.6,0,0,1,75.4,298.7v-3.4A180.6,180.6,0,0,1,254.3,116.4h3.4A180.6,180.6,0,0,1,436.6,295.3v3.4ZM338.5,10V30a10,10,0,0,1-10,10h-145a10,10,0,0,1-10-10V10a10,10,0,0,1,10-10h145A10,10,0,0,1,338.5,10ZM289,40V84.5A230.5,230.5,0,0,0,257.7,82h-3.4A230.5,230.5,0,0,0,223,84.5V40Zm129.7,67a1.6,1.6,0,0,0-2.4,0h0a1.7,1.7,0,0,0,0,2.3l11.4,11.5a1.4,1.4,0,0,1,0,2.1l-20.9,20.9h0a26.1,26.1,0,0,1,2.4,2.3l20.9-20.9a1.5,1.5,0,0,1,2.1,0l11.5,11.4a1.7,1.7,0,0,0,2.3,0h0a1.6,1.6,0,0,0,0-2.4Z" transform="translate(-41 0)"/><path d="M376,366.3h0a1.7,1.7,0,0,0,.6,2.3l34.9,20.1,1.7-2.9-34.9-20.1A1.7,1.7,0,0,0,376,366.3Z" transform="translate(-41 0)"/><path d="M136,227.7a1.7,1.7,0,0,0-.6-2.3l-34.9-20.1-.9,1.4-.8,1.5,34.9,20.1A1.7,1.7,0,0,0,136,227.7Z" transform="translate(-41 0)"/><path d="M325.3,417h0a1.7,1.7,0,0,0-.6,2.3l20.1,34.9,2.9-1.7-20.1-34.9A1.7,1.7,0,0,0,325.3,417Z" transform="translate(-41 0)"/><path d="M186.7,177a1.7,1.7,0,0,0,.6-2.3l-20.1-34.9-1.5.8-1.4.9,20.1,34.9A1.7,1.7,0,0,0,186.7,177Z" transform="translate(-41 0)"/><path d="M186.7,417h0a1.7,1.7,0,0,0-2.3.6l-20.1,34.9,2.9,1.7,20.1-34.9A1.7,1.7,0,0,0,186.7,417Z" transform="translate(-41 0)"/><path d="M344.8,139.8l-20.1,34.9a1.7,1.7,0,1,0,2.9,1.7l20.1-34.9-1.4-.9Z" transform="translate(-41 0)"/><path d="M136,366.3h0a1.7,1.7,0,0,0-2.3-.6L98.8,385.8l1.7,2.9,34.9-20.1a1.7,1.7,0,0,0,.6-2.3Z" transform="translate(-41 0)"/><path d="M378.3,228.3l34.9-20.1-.8-1.5-.9-1.4-34.9,20.1a1.7,1.7,0,1,0,1.7,2.9Z" transform="translate(-41 0)"/><path d="M256,158.4a1.7,1.7,0,0,0,1.7-1.6V116.4h-3.4v40.4A1.7,1.7,0,0,0,256,158.4Z" transform="translate(-41 0)"/><path d="M256,435.6h0a1.7,1.7,0,0,0-1.7,1.6v40.4h3.4V437.2A1.7,1.7,0,0,0,256,435.6Z" transform="translate(-41 0)"/><path d="M117.4,297h0a1.7,1.7,0,0,0-1.6-1.7H75.4v3.4h40.4A1.7,1.7,0,0,0,117.4,297Z" transform="translate(-41 0)"/><path d="M436.6,295.3H396.2a1.7,1.7,0,0,0,0,3.4h40.4v-3.4Z" transform="translate(-41 0)"/><path d="M256.4,407.8a9.3,9.3,0,0,0-4.9,1.4,9.2,9.2,0,0,0-3.1,3.7v-6a9.7,9.7,0,0,1,2.3-6.7,6.8,6.8,0,0,1,5.5-2.5,13.2,13.2,0,0,1,3,.3,10,10,0,0,1,2.5,1l.4-1a8.6,8.6,0,0,0-2.8-1.1,15.5,15.5,0,0,0-3.1-.3,7.9,7.9,0,0,0-6.3,2.9,10.8,10.8,0,0,0-2.6,7.4v9a12.1,12.1,0,0,0,2.5,7.8,7.8,7.8,0,0,0,6.2,2.9,8.1,8.1,0,0,0,6.2-2.6,9,9,0,0,0,2.5-6.7c0-3-.7-5.3-2.2-7S259.1,407.8,256.4,407.8Zm5.1,15.4a7.2,7.2,0,0,1-5.5,2.3,7.1,7.1,0,0,1-5.5-2.6,11,11,0,0,1-2.1-7h0a6.3,6.3,0,0,1,2.4-4.9,8.5,8.5,0,0,1,5.5-2,6.9,6.9,0,0,1,5.5,2.1,9.8,9.8,0,0,1,1.8,6.3A8.5,8.5,0,0,1,261.5,423.2Z" transform="translate(-41 0)"/><polygon points="195.2 170.1 202.6 168.5 202.6 197.4 203.7 197.4 203.7 167.4 195.2 169.1 195.2 170.1"/><path d="M259.7,196.2l8.5-9.9a54.8,54.8,0,0,0,4.5-5.9,10.1,10.1,0,0,0,1.6-5,7.9,7.9,0,0,0-2.2-5.9,7.8,7.8,0,0,0-5.8-2.1,8.6,8.6,0,0,0-6.3,2.5,8.7,8.7,0,0,0-2.3,6.2h1a7.7,7.7,0,0,1,2-5.5,7,7,0,0,1,5.6-2.2c2.4,0,4.1.6,5.2,1.8a7.3,7.3,0,0,1,1.6,5.1,8.2,8.2,0,0,1-1.1,4.1,28.6,28.6,0,0,1-3.8,5.2l-10,11.6v1.1h17.6v-1.1H259.7Z" transform="translate(-41 0)"/><path d="M358.8,344h-.9l-9.5,14.1v.4h9.7V364h.7v-5.5h3.5v-.7h-3.5Zm-.7,13.8h-8.6l7.4-11L358,345h.1Z" transform="translate(-41 0)"/><polygon points="103.6 230.2 108.5 229.2 108.5 248.2 109.3 248.2 109.3 228.5 103.6 229.6 103.6 230.2"/><path d="M164.5,248.5a5.3,5.3,0,0,0,4.4-1.9,8.4,8.4,0,0,0,1.5-5.3v-5.7a7.7,7.7,0,0,0-1.6-5.2,5.1,5.1,0,0,0-4.3-1.9,5.3,5.3,0,0,0-4.4,1.9,8.2,8.2,0,0,0-1.5,5.2v5.7a8.4,8.4,0,0,0,1.5,5.3A5.3,5.3,0,0,0,164.5,248.5Zm-5.2-12.9a7.2,7.2,0,0,1,1.3-4.6,4.6,4.6,0,0,1,3.9-1.8,4.4,4.4,0,0,1,3.8,1.8,7.2,7.2,0,0,1,1.4,4.6v5.7a7.5,7.5,0,0,1-1.4,4.7,4.3,4.3,0,0,1-3.8,1.8,4.6,4.6,0,0,1-3.9-1.8,7.7,7.7,0,0,1-1.3-4.7Z" transform="translate(-41 0)"/><path d="M141.4,282a8.2,8.2,0,0,0-6.2,2.6,9.2,9.2,0,0,0-2.4,6.6,10.9,10.9,0,0,0,2.1,7.1,7.8,7.8,0,0,0,6.1,2.5,8.4,8.4,0,0,0,4.9-1.5,8.2,8.2,0,0,0,3.1-3.6v6a9.7,9.7,0,0,1-2.2,6.7,7.2,7.2,0,0,1-5.6,2.5,12.3,12.3,0,0,1-2.9-.3,9.3,9.3,0,0,1-2.6-1l-.4,1a13.6,13.6,0,0,0,2.8,1.1,16.3,16.3,0,0,0,3.1.3,8,8,0,0,0,6.3-2.9,10.9,10.9,0,0,0,2.6-7.5v-8.9a11.4,11.4,0,0,0-2.5-7.8A7.8,7.8,0,0,0,141.4,282Zm7.6,10.8h0a6.1,6.1,0,0,1-2.4,4.8,8.1,8.1,0,0,1-5.5,2.1,6.5,6.5,0,0,1-5.4-2.2,9.5,9.5,0,0,1-1.9-6.3,8.4,8.4,0,0,1,2.1-5.8,6.8,6.8,0,0,1,5.5-2.3,6.6,6.6,0,0,1,5.5,2.6,11,11,0,0,1,2.1,7Z" transform="translate(-41 0)"/><path d="M379.6,303.8a7.1,7.1,0,0,0-1.6-4.6,8,8,0,0,0-4.4-2.5,8.3,8.3,0,0,0,3.9-2.7,6.8,6.8,0,0,0,1.4-4.1,7.8,7.8,0,0,0-2.2-5.8,8.4,8.4,0,0,0-6-2.1,8.6,8.6,0,0,0-6.1,2.2,6.8,6.8,0,0,0-2.4,5.7v.2h1a6.5,6.5,0,0,1,2.1-5.1,7.6,7.6,0,0,1,5.4-1.9A6.9,6.9,0,0,1,376,285a6.8,6.8,0,0,1,1.8,4.8,5.7,5.7,0,0,1-2.1,4.5,8.5,8.5,0,0,1-5.7,1.8h-2.3v1.2H370a10.4,10.4,0,0,1,6.2,1.6,5.9,5.9,0,0,1,2.3,5,7,7,0,0,1-2,5.2,8.2,8.2,0,0,1-5.6,1.8,8.8,8.8,0,0,1-6-2.1,6.8,6.8,0,0,1-2.4-5.3h-.9a7,7,0,0,0,2.7,6.2,10.3,10.3,0,0,0,6.6,2.2,8.7,8.7,0,0,0,6.2-2.2A7.3,7.3,0,0,0,379.6,303.8Z" transform="translate(-41 0)"/><path d="M313.7,393.1a7.8,7.8,0,0,0-3,.5,5.5,5.5,0,0,0-1.8,1.3l.8-8.4h8.7v-.7H309l-1,10.7.5.3a4.4,4.4,0,0,1,1.8-2.2,6.6,6.6,0,0,1,3.4-.7,4.7,4.7,0,0,1,3.5,1.4,6.2,6.2,0,0,1,1.2,4,6.7,6.7,0,0,1-1.2,4.3,5.8,5.8,0,0,1-7.4.3,4.5,4.5,0,0,1-1.3-3.6h-.7a5.1,5.1,0,0,0,1.5,4,6.1,6.1,0,0,0,4,1.4,5.2,5.2,0,0,0,4.4-1.8,7.2,7.2,0,0,0,1.4-4.8,6.4,6.4,0,0,0-1.5-4.5A5,5,0,0,0,313.7,393.1Z" transform="translate(-41 0)"/><polygon points="152.7 207.6 153.4 207.6 153.4 187.6 147.7 188.8 147.7 189.4 152.7 188.3 152.7 207.6"/><polygon points="162.9 189.4 167.9 188.3 167.9 207.6 168.6 207.6 168.6 187.6 162.9 188.8 162.9 189.4"/><polygon points="275.6 208.5 276.4 208.5 276.4 188.5 270.7 189.7 270.7 190.3 275.6 189.2 275.6 208.5"/><path d="M192.6,387.1h11.9a28.1,28.1,0,0,0-5,8.1,24.1,24.1,0,0,0-1.8,9.3v1.8h.7v-1.8a23.4,23.4,0,0,1,2-9.7,29.2,29.2,0,0,1,5-7.7v-.8H192.6Z" transform="translate(-41 0)"/><path d="M159.3,354.1a5.2,5.2,0,0,0,2.6-1.7,4.7,4.7,0,0,0,.9-2.8,4.8,4.8,0,0,0-1.5-3.8,6,6,0,0,0-4-1.3,6.3,6.3,0,0,0-4.1,1.3,4.5,4.5,0,0,0-1.6,3.8,4.2,4.2,0,0,0,1,2.8,5.5,5.5,0,0,0,2.7,1.7,5.7,5.7,0,0,0-3.1,1.8A4.5,4.5,0,0,0,151,359a4.8,4.8,0,0,0,1.8,4,6.9,6.9,0,0,0,4.6,1.5,6.4,6.4,0,0,0,4.3-1.5,5.1,5.1,0,0,0,1.7-4,4.9,4.9,0,0,0-1.1-3.1A6.5,6.5,0,0,0,159.3,354.1Zm-5.6-1.5a4,4,0,0,1-1.4-3.1,4.2,4.2,0,0,1,1.4-3.2,6.1,6.1,0,0,1,3.6-1.1,4.9,4.9,0,0,1,3.4,1.2,4.1,4.1,0,0,1,0,6.2,4.7,4.7,0,0,1-3.3,1.1A5.6,5.6,0,0,1,153.7,352.6Zm7.4,9.9a5.7,5.7,0,0,1-3.7,1.2,6.6,6.6,0,0,1-4.1-1.2,4.4,4.4,0,0,1,0-6.8,6.5,6.5,0,0,1,4-1.2,6,6,0,0,1,3.8,1.2,4.4,4.4,0,0,1,0,6.8Z" transform="translate(-41 0)"/><path d="M350,236a5.1,5.1,0,0,1,1.3-3.7,4.8,4.8,0,0,1,3.8-1.4,4.4,4.4,0,0,1,3.4,1.2,4.7,4.7,0,0,1,1.1,3.3,6.1,6.1,0,0,1-.7,2.8,23.6,23.6,0,0,1-2.6,3.5l-6.7,7.7v.7h11.8v-.7H350.6l5.7-6.6a34.5,34.5,0,0,0,3-3.9,6.6,6.6,0,0,0,1-3.4,4.9,4.9,0,0,0-1.4-3.9,5.2,5.2,0,0,0-3.8-1.4,5.8,5.8,0,0,0-4.3,1.7,5.9,5.9,0,0,0-1.5,4.1h.7Z" transform="translate(-41 0)"/><path d="M435.6,316.1l-20.7-2.3a.9.9,0,0,0-.9.8h0a.8.8,0,0,0,.8.9l20.6,2.3a2.8,2.8,0,0,1,.1-.9A2.2,2.2,0,0,1,435.6,316.1Z" transform="translate(-41 0)"/><path d="M76.4,278.4,97,280.7a1,1,0,0,0,1-.8h0a.9.9,0,0,0-.8-.9l-20.6-2.3c0,.3-.1.6-.1.9S76.4,278.1,76.4,278.4Z" transform="translate(-41 0)"/><path d="M432.7,334.3,412.4,330a.8.8,0,0,0-1,.6h0a.9.9,0,0,0,.7,1l20.3,4.3c0-.2.1-.5.1-.8A2.4,2.4,0,0,0,432.7,334.3Z" transform="translate(-41 0)"/><path d="M79.3,260.2l20.2,4.4a.9.9,0,0,0,1.1-.7h0a.9.9,0,0,0-.7-1l-20.3-4.3c-.1.2-.1.5-.2.8S79.3,259.9,79.3,260.2Z" transform="translate(-41 0)"/><path d="M428.2,351.7l-19.8-6.4a1,1,0,0,0-1.1.6h0a.8.8,0,0,0,.6,1l19.7,6.4.3-.8Z" transform="translate(-41 0)"/><path d="M83.8,242.8l19.8,6.4a.8.8,0,0,0,1-.6h0a.7.7,0,0,0-.5-1l-19.8-6.4a3.1,3.1,0,0,0-.2.8Z" transform="translate(-41 0)"/><path d="M421.9,368.5l-19-8.3a.8.8,0,0,0-1.1.5h0a.8.8,0,0,0,.4,1.1l19,8.2.4-.7Z" transform="translate(-41 0)"/><path d="M90.1,226l19,8.3a.8.8,0,0,0,1.1-.4h0a.9.9,0,0,0-.4-1.2l-19.1-8.2-.3.7Z" transform="translate(-41 0)"/><path d="M435.5,277.6l-20.7,2.1a.9.9,0,0,0-.7,1h0a.8.8,0,0,0,.9.7l20.6-2.2v-.8A2.5,2.5,0,0,1,435.5,277.6Z" transform="translate(-41 0)"/><path d="M76.5,316.9l20.6-2.1a.9.9,0,0,0,.8-.9h0a1,1,0,0,0-1-.8l-20.6,2.2c0,.3.1.5.1.8S76.5,316.7,76.5,316.9Z" transform="translate(-41 0)"/><path d="M432.6,259.7l-20.3,4.2a.8.8,0,0,0-.7,1h0a.8.8,0,0,0,1,.6l20.3-4.2c0-.3-.1-.5-.1-.8S432.7,259.9,432.6,259.7Z" transform="translate(-41 0)"/><path d="M79.4,334.8l20.3-4.2a1,1,0,0,0,.7-1h0a.9.9,0,0,0-1.1-.6L79,333.2c.1.3.1.5.2.8S79.3,334.6,79.4,334.8Z" transform="translate(-41 0)"/><path d="M427.8,241.6,408,247.9a.8.8,0,0,0-.6,1h0a.9.9,0,0,0,1.1.6l19.8-6.3-.3-.8A3.1,3.1,0,0,1,427.8,241.6Z" transform="translate(-41 0)"/><path d="M84.2,352.9l19.8-6.3a.7.7,0,0,0,.5-1h0a.8.8,0,0,0-1-.6l-19.8,6.3.3.8A1.9,1.9,0,0,0,84.2,352.9Z" transform="translate(-41 0)"/><path d="M420.6,223.1l-18.9,8.4a.8.8,0,0,0-.5,1.1h0a.8.8,0,0,0,1.1.4l19-8.4a3,3,0,0,0-.4-.8Z" transform="translate(-41 0)"/><path d="M91.4,371.5l18.9-8.5a.8.8,0,0,0,.5-1.1h0a.9.9,0,0,0-1.2-.4l-18.9,8.4.3.8Z" transform="translate(-41 0)"/><path d="M274.8,117.7l-2.2,20.6a.7.7,0,0,0,.7.9h0a.7.7,0,0,0,.9-.7l2.3-20.6h-1.7Z" transform="translate(-41 0)"/><path d="M237.1,476.8l2.3-20.6a.7.7,0,0,0-.7-.9h0a.9.9,0,0,0-1,.7l-2.2,20.7h1.6Z" transform="translate(-41 0)"/><path d="M293,120.5l-4.3,20.3a.8.8,0,0,0,.6,1h0a.8.8,0,0,0,1-.6l4.4-20.3-.8-.2Z" transform="translate(-41 0)"/><path d="M218.9,474l4.4-20.3a.8.8,0,0,0-.7-1h0a.9.9,0,0,0-1,.6l-4.3,20.3.8.2Z" transform="translate(-41 0)"/><path d="M310.4,125.1l-6.3,19.7a.8.8,0,0,0,.5,1.1h0a.9.9,0,0,0,1.1-.6l6.3-19.7-.8-.3Z" transform="translate(-41 0)"/><path d="M201.6,469.4l6.3-19.7a.8.8,0,0,0-.5-1.1h0a.9.9,0,0,0-1.1.6L200,468.9l.8.3Z" transform="translate(-41 0)"/><path d="M327.2,131.3,319,150.4a.8.8,0,0,0,.4,1.1h0a.8.8,0,0,0,1.1-.5l8.3-19-.8-.3Z" transform="translate(-41 0)"/><path d="M184.7,463.2l8.3-19a.9.9,0,0,0-.4-1.2h0a.8.8,0,0,0-1.1.5l-8.3,19,.8.3Z" transform="translate(-41 0)"/><path d="M236.3,117.8l2.2,20.6a.8.8,0,0,0,.9.8h0a.9.9,0,0,0,.7-1L238,117.6h-1.7Z" transform="translate(-41 0)"/><path d="M275.7,476.7l-2.2-20.6a.9.9,0,0,0-.9-.8h0a1,1,0,0,0-.8,1l2.2,20.6h1.7Z" transform="translate(-41 0)"/><path d="M218.4,120.6l4.2,20.3a.9.9,0,0,0,1,.7h0a.8.8,0,0,0,.7-1l-4.2-20.3-.9.2Z" transform="translate(-41 0)"/><path d="M293.6,473.9l-4.3-20.3a.8.8,0,0,0-1-.7h0a.8.8,0,0,0-.6,1l4.2,20.3.8-.2Z" transform="translate(-41 0)"/><path d="M200.3,125.5l6.3,19.7c.2.5.6.8,1.1.6h0a.8.8,0,0,0,.5-1.1L201.9,125l-.8.2Z" transform="translate(-41 0)"/><path d="M311.7,469l-6.3-19.7a1,1,0,0,0-1.1-.6h0a.8.8,0,0,0-.5,1.1l6.3,19.7.8-.2Z" transform="translate(-41 0)"/><path d="M181.8,132.6l8.4,19a.8.8,0,0,0,1.1.4h0a.8.8,0,0,0,.5-1.1L183.3,132l-.7.3Z" transform="translate(-41 0)"/><path d="M330.2,461.9l-8.5-19a.8.8,0,0,0-1.1-.4h0a.8.8,0,0,0-.4,1.1l8.4,19,.8-.4Z" transform="translate(-41 0)"/><path d="M150.5,150.7l12,16.9a.8.8,0,0,0,1.2.2h0c.4-.2.4-.8.2-1.2l-12.1-16.8-.7.4Z" transform="translate(-41 0)"/><path d="M361.5,443.8l-12-16.9a.8.8,0,0,0-1.2-.2h0a.8.8,0,0,0-.2,1.2l12,16.9.7-.5Z" transform="translate(-41 0)"/><path d="M134.6,163.6,148.4,179a.8.8,0,0,0,1.2.1h0a.8.8,0,0,0,.1-1.2l-13.9-15.4-.6.6Z" transform="translate(-41 0)"/><path d="M377.4,430.9l-13.9-15.4a.8.8,0,0,0-1.2-.1h0a.9.9,0,0,0,0,1.2L376.2,432l.6-.5Z" transform="translate(-41 0)"/><path d="M121.8,176.5l15.3,13.9a.9.9,0,0,0,1.2,0h0a.9.9,0,0,0,0-1.2l-15.4-14-.6.6Z" transform="translate(-41 0)"/><path d="M390.2,418.1l-15.4-14a.9.9,0,0,0-1.2,0h0a.9.9,0,0,0,.1,1.2l15.4,14,.5-.6Z" transform="translate(-41 0)"/><path d="M109,192.4l16.8,12.1a.9.9,0,0,0,1.2-.1h0a.8.8,0,0,0-.2-1.2l-16.9-12.1-.5.6A4.3,4.3,0,0,1,109,192.4Z" transform="translate(-41 0)"/><path d="M403,402.1,386.2,390a.9.9,0,0,0-1.2.1h0a.8.8,0,0,0,.2,1.2L402,403.4l.5-.6Z" transform="translate(-41 0)"/><path d="M402.5,191.7l-16.9,12.1a.8.8,0,0,0-.2,1.2h0a.9.9,0,0,0,1.2.1l16.9-12-.5-.7Z" transform="translate(-41 0)"/><path d="M109.5,402.8l16.8-12.1a.8.8,0,0,0,.3-1.1h0a.8.8,0,0,0-1.2-.2l-16.9,12,.5.7Z" transform="translate(-41 0)"/><path d="M389.6,175.8l-15.4,13.9a.8.8,0,0,0-.1,1.2h0a.8.8,0,0,0,1.2,0l15.4-13.8-.5-.7Z" transform="translate(-41 0)"/><path d="M122.4,418.7l15.4-13.9a.8.8,0,0,0,0-1.2h0a.8.8,0,0,0-1.2,0l-15.4,13.8.6.7Z" transform="translate(-41 0)"/><path d="M376.8,163l-14,15.4a.8.8,0,0,0,.1,1.2h0a.8.8,0,0,0,1.2-.1L378,164.2l-.6-.6Z" transform="translate(-41 0)"/><path d="M135.2,431.5l13.9-15.4a.8.8,0,0,0,0-1.2h0a.8.8,0,0,0-1.2.1l-14,15.3.7.6Z" transform="translate(-41 0)"/><path d="M360.8,150.2l-12.1,16.9a.8.8,0,0,0,.2,1.2h0a1,1,0,0,0,1.2-.3l12.1-16.8-.7-.5Z" transform="translate(-41 0)"/><path d="M151.2,444.3l12.1-16.9a.7.7,0,0,0-.2-1.1h0a.8.8,0,0,0-1.2.2l-12.1,16.8.7.5Z" transform="translate(-41 0)"/><path d="M258.2,281.5V236.7a2,2,0,0,0-4,0v44.8a16.9,16.9,0,1,0,4,0Zm-16.4,16.7a14.2,14.2,0,0,1,28.4-.7h44.2a.8.8,0,0,1,.8.9.8.8,0,0,1-.8.8H270.2a14.2,14.2,0,0,1-28.4-1Z" transform="translate(-41 0)"/></svg>