<svg xmlns="http://www.w3.org/2000/svg" viewBox="0 0 430 512"><path d="M471,295.3A215.2,215.2,0,0,0,289,84.5,230.5,230.5,0,0,0,257.7,82h-3.4A230.5,230.5,0,0,0,223,84.5C120.5,100.3,41.8,188.6,41,295.3v3.4h0c.9,117.4,95.9,212.4,213.3,213.3h3.4c117.4-.9,212.4-95.9,213.3-213.3v-3.4Zm-34.4,3.4A180.6,180.6,0,0,1,257.7,477.6h-3.4A180.6,180.6,0,0,1,75.4,298.7v-3.4A180.6,180.6,0,0,1,254.3,116.4h3.4A180.6,180.6,0,0,1,436.6,295.3v3.4ZM338.5,10V30a10,10,0,0,1-10,10h-145a10,10,0,0,1-10-10V10a10,10,0,0,1,10-10h145A10,10,0,0,1,338.5,10ZM289,40V84.5A230.5,230.5,0,0,0,257.7,82h-3.4A230.5,230.5,0,0,0,223,84.5V40Zm129.7,67a1.6,1.6,0,0,0-2.4,0h0a1.7,1.7,0,0,0,0,2.3l11.4,11.5a1.4,1.4,0,0,1,0,2.1l-20.9,20.9h0a26.1,26.1,0,0,1,2.4,2.3l20.9-20.9a1.5,1.5,0,0,1,2.1,0l11.5,11.4a1.7,1.7,0,0,0,2.3,0h0a1.6,1.6,0,0,0,0-2.4Z" transform="translate(-41 0)"/><path d="M376,366.3h0a1.7,1.7,0,0,0,.6,2.3l34.9,20.1,1.7-2.9-34.9-20.1A1.7,1.7,0,0,0,376,366.3Z" transform="translate(-41 0)"/><path d="M136,227.7a1.7,1.7,0,0,0-.6-2.3l-34.9-20.1-.9,1.4-.8,1.5,34.9,20.1A1.7,1.7,0,0,0,136,227.7Z" transform="translate(-41 0)"/><path d="M325.3,417h0a1.7,1.7,0,0,0-.6,2.3l20.1,34.9,2.9-1.7-20.1-34.9A1.7,1.7,0,0,0,325.3,417Z" transform="translate(-41 0)"/><path d="M186.7,177a1.7,1.7,0,0,0,.6-2.3l-20.1-34.9-1.5.8-1.4.9,20.1,34.9A1.7,1.7,0,0,0,186.7,177Z" transform="translate(-41 0)"/><path d="M186.7,417h0a1.7,1.7,0,0,0-2.3.6l-20.1,34.9,2.9,1.7,20.1-34.9A1.7,1.7,0,0,0,186.7,417Z" transform="translate(-41 0)"/><path d="M344.8,139.8l-20.1,34.9a1.7,1.7,0,1,0,2.9,1.7l20.1-34.9-1.4-.9Z" transform="translate(-41 0)"/><path d="M136,366.3h0a1.7,1.7,0,0,0-2.3-.6L98.8,385.8l1.7,2.9,34.9-20.1a1.7,1.7,0,0,0,.6-2.3Z" transform="translate(-41 0)"/><path d="M378.3,228.3l34.9-20.1-.8-1.5-.9-1.4-34.9,20.1a1.7,1.7,0,1,0,1.7,2.9Z" transform="translate(-41 0)"/><path d="M256,158.4a1.7,1.7,0,0,0,1.7-1.6V116.4h-3.4v40.4A1.7,1.7,0,0,0,256,158.4Z" transform="translate(-41 0)"/><path d="M256,435.6h0a1.7,1.7,0,0,0-1.7,1.6v40.4h3.4V437.2A1.7,1.7,0,0,0,256,435.6Z" transform="translate(-41 0)"/><path d="M117.4,297h0a1.7,1.7,0,0,0-1.6-1.7H75.4v3.4h40.4A1.7,1.7,0,0,0,117.4,297Z" transform="translate(-41 0)"/><path d="M436.6,295.3H396.2a1.7,1.7,0,0,0,0,3.4h40.4v-3.4Z" transform="translate(-41 0)"/><path d="M258.2,281.5V236.7a2,2,0,0,0-4,0v44.8a16.9,16.9,0,1,0,4,0Zm-16.4,16.7a14.2,14.2,0,0,1,28.4-.7h44.2a.8.8,0,0,1,.8.9.8.8,0,0,1-.8.8H270.2a14.2,14.2,0,0,1-28.4-1Z" transform="translate(-41 0)"/></svg>